<?xml version="1.0" encoding="UTF-8"?>
<svg width="1159px" height="550px" viewBox="0 0 1159 550" version="1.1" xmlns="http://www.w3.org/2000/svg" xmlns:xlink="http://www.w3.org/1999/xlink">
    <!-- Generator: Sketch 54.1 (76490) - https://sketchapp.com -->
    <title>Image_Quizzes</title>
    <desc>Created with Sketch.</desc>
    <defs>
        <linearGradient x1="98.4689039%" y1="38.9681216%" x2="58.3694008%" y2="50.4429507%" id="linearGradient-1">
            <stop stop-color="#D7E8FE" offset="0%"></stop>
            <stop stop-color="#92CAFA" offset="100%"></stop>
        </linearGradient>
        <linearGradient x1="95.5135706%" y1="35.6313787%" x2="44.5994223%" y2="54.7837655%" id="linearGradient-2">
            <stop stop-color="#D9140B" offset="0%"></stop>
            <stop stop-color="#F89A97" offset="100%"></stop>
        </linearGradient>
        <linearGradient x1="86.2996307%" y1="41.0058454%" x2="13.0964836%" y2="58.7353084%" id="linearGradient-3">
            <stop stop-color="#F90D02" offset="0%"></stop>
            <stop stop-color="#FD8B27" offset="45.1874038%"></stop>
            <stop stop-color="#FDA15E" offset="100%"></stop>
        </linearGradient>
        <linearGradient x1="95.5135706%" y1="30.1486383%" x2="44.5994223%" y2="56.6091421%" id="linearGradient-4">
            <stop stop-color="#0C4FD2" offset="0%"></stop>
            <stop stop-color="#7ED2EF" offset="100%"></stop>
        </linearGradient>
        <linearGradient x1="95.5135706%" y1="35.5527553%" x2="44.5994223%" y2="54.8099417%" id="linearGradient-5">
            <stop stop-color="#16069B" offset="0%"></stop>
            <stop stop-color="#6992CC" offset="100%"></stop>
        </linearGradient>
        <polygon id="path-6" points="0.180677577 0.220816234 6.77094076 0.220816234 6.77094076 12.2675685 0.180677577 12.2675685"></polygon>
        <polygon id="path-8" points="0 0.745373478 14.3691513 0.745373478 14.3691513 26.5841961 0 26.5841961"></polygon>
        <path d="M8.60258398,0.082900446 C7.52334195,0.101254788 6.55624462,0.200368237 5.60482343,0.742433146 C3.34022394,2.03457884 1.49767442,4.8366751 0.135055986,7.04653791 C0.135055986,7.27902625 0.845305771,7.15544034 0.9791559,7.25944828 C1.31920758,7.52986892 1.6664944,7.79050058 2.01498708,8.05113224 C2.77226529,8.61522236 3.53557278,9.16707626 4.30490956,9.71525928 C4.52075797,9.871883 4.89216193,10.0382957 5.05495263,10.2524297 C5.23944875,10.4922598 5.10559862,10.6904867 5.02962963,11.0392192 C4.78604651,12.168623 4.75348837,11.7758401 4.67269595,12.93094 C4.50267011,15.3475951 5.75314384,18.8569454 6.95658915,20.8318726 C7.43290267,21.6125439 8.07080103,22.4360421 8.33126615,23.3268395 C8.64478898,24.4085221 8.58087855,25.6504993 8.55314384,26.7652196 C8.53893766,27.3130818 8.51320685,27.8605738 8.47596899,28.4073215 C8.47114556,28.5101058 8.37588286,28.9090068 8.43496985,28.9848714 C8.46511628,29.0240274 8.74366925,29.0203565 8.79069767,29.025251 C9.63479759,29.1341534 10.4692506,29.3030134 11.2988803,29.4841095 C15.349354,30.374907 19.2068906,31.9484859 23.2465116,32.8527432 C25.6425495,33.38869 28.2098191,33.8316414 30.6770026,33.6627815 C30.0672109,32.5378082 29.5946563,31.3416871 29.2697674,30.1008154 C28.7072286,27.9591972 28.2619878,25.7876135 27.9360896,23.5960365 C27.6165375,21.4865108 27.4501292,19.2007834 28.2037898,17.164675 C28.5896641,16.1245956 29.2432386,15.2558234 29.8353144,14.3307646 C30.4671835,13.3469718 30.7360896,12.3913224 30.9881137,11.2643658 C31.4427218,9.22213928 32.7920758,7.21906873 34.7347115,6.37721623 C34.4537468,6.00401127 33.9846684,5.72991976 33.6132644,5.46194636 C33.0031008,5.02266577 32.3784668,4.60541039 31.7514212,4.18937863 C31.1581395,3.79781932 30.4925065,3.20436226 29.8208441,2.96208494 C29.3722653,2.7993431 28.8272179,2.76630529 28.3605512,2.67698082 C27.328493,2.4815816 26.2954621,2.29150973 25.2614987,2.10677259 C22.3940351,1.58803018 19.5157756,1.13273449 16.6287683,0.741209523 C14.1410853,0.408384116 11.6124031,0.0792295775 9.09457364,0.0792295775 L8.60258398,0.082900446" id="path-10"></path>
        <linearGradient x1="-0.001%" y1="50%" x2="100.001%" y2="50%" id="linearGradient-12">
            <stop stop-color="#CC502A" offset="0%"></stop>
            <stop stop-color="#DD2F2F" offset="100%"></stop>
        </linearGradient>
        <polygon id="path-13" points="0 0.709604104 17.3440482 0.709604104 17.3440482 31.7013375 0 31.7013375"></polygon>
        <filter x="-12.6%" y="-8.8%" width="125.2%" height="117.7%" filterUnits="objectBoundingBox" id="filter-15">
            <feOffset dx="2" dy="0" in="SourceAlpha" result="shadowOffsetOuter1"></feOffset>
            <feGaussianBlur stdDeviation="3" in="shadowOffsetOuter1" result="shadowBlurOuter1"></feGaussianBlur>
            <feColorMatrix values="0 0 0 0 0.6   0 0 0 0 0.6   0 0 0 0 0.6  0 0 0 1 0" type="matrix" in="shadowBlurOuter1" result="shadowMatrixOuter1"></feColorMatrix>
            <feMerge>
                <feMergeNode in="shadowMatrixOuter1"></feMergeNode>
                <feMergeNode in="SourceGraphic"></feMergeNode>
            </feMerge>
        </filter>
    </defs>
    <g id="PC-EP-Game-Start-Image" stroke="none" stroke-width="1" fill="none" fill-rule="evenodd">
        <g id="Game_DefaultImage_Quizzes" transform="translate(-140.000000, -145.000000)">
            <g id="Image_Quizzes" transform="translate(140.000000, 145.000000)">
                <rect id="Rectangle" fill="url(#linearGradient-1)" x="0.998278089" y="1" width="1156.00603" height="543"></rect>
                <path d="M2.99483427,368.081182 C328.599371,325.017581 613.860129,312.136697 858.77711,329.438532 C918.166872,333.634043 1017.9087,344.345584 1158.00258,361.573156 L1157.00516,544 L0,544 L2.99483427,368.081182 Z" id="Ground" fill="#E3DEDE"></path>
                <g id="Group-11" transform="translate(0.998278, 0.000000)">
                    <g id="Bird-Red" transform="translate(95.001722, 60.000000)">
                        <path d="M27.0496942,8.73178794 C30.9825455,2.91059598 34.3265239,-5.65497435e-14 37.0816295,-5.68434189e-14 L37.3514253,1.52322759 C39.642264,0.507742529 41.5299017,-5.67439891e-14 43.0143384,-5.68434189e-14 C44.498775,-5.68434189e-14 40.8798543,2.91059598 32.1575763,8.73178794 L27.0496942,8.73178794 Z" id="Path-16" fill="url(#linearGradient-2)"></path>
                        <path d="M13.8847994,17.7058475 C14.842021,17.9046602 15.5102171,18.4653433 15.8893877,19.3878968 C16.2685583,20.3104502 16.3519923,20.7725547 16.1396899,20.7742102 L14.1367899,20.7688871 L13.8847994,17.7058475 Z" id="Triangle" fill="#111111" transform="translate(15.069397, 19.240029) rotate(-130.000000) translate(-15.069397, -19.240029) "></path>
                        <path d="M25.3808966,5.52756399 C16.4105814,2.01367669 19.3663101,-4.1405582 -2.13162821e-14,4.09430667 C9.01906687,2.95824884 14.8977594,4.45679164 17.6360776,8.58993506 C21.7435548,14.7896502 17.8312601,13.592816 15.4278772,14.7896502 C13.6913282,16.2956095 14.2818529,18.8907222 15.4278772,19.6545514 C17.9316447,21.3233212 23.7174121,19.8157616 25.3808966,18.2384871 C29.0182385,14.7896502 34.0877225,11.3408133 41.2142879,14.7896502 C45.9653315,17.0888748 50.260365,20.587769 54.0993884,25.2863328 C53.6467724,11.7810904 44.0739418,5.19483413 25.3808966,5.52756399 Z" id="Path-15" fill="#FA6862"></path>
                    </g>
                    <g id="Bird-Orange" transform="translate(81.001722, 93.000000)">
                        <path d="M30.9466208,16.0589331 C39.7519018,6.25689511 46.4340598,1.35587614 50.9930947,1.35587614 L47.9934998,5.28720411 C60.4878393,-0.579526366 63.6114242,-1.33824442 57.3642544,3.01104995 C51.1170847,7.36034432 45.1286442,11.7096387 39.398933,16.0589331 L30.9466208,16.0589331 Z" id="Path-16" fill="url(#linearGradient-3)"></path>
                        <path d="M15.8926596,26.4552548 C16.9946487,26.6876304 17.7656442,27.3345725 18.2056461,28.3960809 C18.645648,29.4575894 18.7435382,29.9888561 18.4993168,29.9898809 L16.1952008,29.9754889 L15.8926596,26.4552548 Z" id="Triangle" fill="#111111" transform="translate(17.261366, 28.222568) rotate(-130.000000) translate(-17.261366, -28.222568) "></path>
                        <path d="M29.0374071,12.3848173 C18.7747793,8.34002071 22.1563264,1.25594945 0,10.7350107 C10.3184029,9.4273072 17.0440119,11.1522631 20.1768271,15.9098785 C24.87605,23.0463016 20.4001288,21.6686391 17.6505014,23.0463016 C15.6637757,24.7797946 16.3393746,27.7669999 17.6505014,28.6462352 C20.5149753,30.5671375 27.134272,28.8318025 29.0374071,27.0162193 C33.1987642,23.0463016 38.9985858,19.0763839 47.1518431,23.0463016 C52.5873479,25.6929134 57.5011474,29.7204516 61.8932415,35.1289161 C61.3754192,19.5831819 50.4234744,12.0018156 29.0374071,12.3848173 Z" id="Path-15" fill="#F4893B"></path>
                    </g>
                    <g id="Bird-Yellow" transform="translate(181.458453, 51.040996) rotate(19.000000) translate(-181.458453, -51.040996) translate(158.958453, 38.040996)">
                        <path d="M22.4980449,10.0652212 C28.912081,3.36149635 33.280288,0.00963392311 35.602666,0.00963392311 L32.021965,2.90348456 C35.7304541,1.67563548 37.875378,1.60627552 38.4567369,2.69540468 C35.5620505,4.7153697 31.6776926,7.17197521 26.8036632,10.0652212 L22.4980449,10.0652212 Z" id="Path-16" fill="url(#linearGradient-4)"></path>
                        <path d="M11.4279428,18.7056066 C12.2640559,18.9021331 12.8591178,19.4014493 13.2131285,20.2035553 C13.5671393,21.0056613 13.6520422,21.4045548 13.4678374,21.400236 L11.7294492,21.3415162 L11.4279428,18.7056066 Z" id="Triangle" fill="#111111" transform="translate(12.495173, 20.052939) rotate(-130.000000) translate(-12.495173, -20.052939) "></path>
                        <path d="M21.138917,7.95430447 C13.6966513,4.88010459 16.148886,-0.50406015 0.0815325382,6.70038848 C7.56424529,5.70648386 12.4415312,7.01751625 14.7133902,10.6334857 C18.1211787,16.0574398 14.8753244,15.0103636 12.881346,16.0574398 C11.4406097,17.3749607 11.9305413,19.6453508 12.881346,20.3136032 C14.9586089,21.7735623 19.758799,20.4546414 21.138917,19.0747289 C24.1566554,16.0574398 28.3625775,13.0401507 34.2751672,16.0574398 C38.2168936,18.0689658 41.7802891,21.1300487 44.9653536,25.2406883 C44.5898385,13.4253365 36.647693,7.66320859 21.138917,7.95430447 Z" id="Path-15" fill="#33BDF9"></path>
                    </g>
                    <g id="Bird-Blue" transform="translate(1093.831232, 136.673647) rotate(71.000000) translate(-1093.831232, -136.673647) translate(1066.331232, 123.673647)">
                        <path d="M27.0263956,8.74810355 C30.9558594,2.91603452 34.2969575,-5.65491947e-14 37.0496901,-5.68434189e-14 L37.3192535,1.52607378 C39.6081191,0.508691261 41.4941309,-5.67438033e-14 42.977289,-5.68434189e-14 C44.4604471,-5.68434189e-14 40.8446434,2.91603452 32.1298781,8.74810355 L27.0263956,8.74810355 Z" id="Path-16" fill="url(#linearGradient-5)"></path>
                        <path d="M13.8690193,17.7400153 C14.8272171,17.9401677 15.4966618,18.5018985 15.8773533,19.4252075 C16.2580448,20.3485166 16.3421618,20.8108564 16.1297044,20.812227 L14.1253138,20.8042102 L13.8690193,17.7400153 Z" id="Triangle" fill="#111111" transform="translate(15.056436, 19.276121) rotate(-130.000000) translate(-15.056436, -19.276121) "></path>
                        <path d="M25.3590354,5.53789241 C16.3964466,2.0174393 19.3496294,-4.14829496 -2.13162821e-14,4.10195701 C9.01129851,2.96377642 14.8849276,4.46511929 17.6208871,8.60598562 C21.7248265,14.8172851 17.8159016,13.6182146 15.4145888,14.8172851 C13.6795355,16.3260584 14.2695515,18.9260201 15.4145888,19.6912765 C17.9161997,21.3631645 23.6969837,19.852788 25.3590354,18.2725662 C28.9932443,14.8172851 34.0583618,11.362004 41.1787889,14.8172851 C45.9257403,17.1208059 50.2170744,20.6262379 54.0527912,25.3335811 C53.600565,11.8031037 44.0359798,5.20454084 25.3590354,5.53789241 Z" id="Path-15" fill="#5F6FA0"></path>
                    </g>
                    <g id="Group-5-Copy-6" transform="translate(371.001722, 164.000000)">
                        <path d="M0.15,14.202005 L0.15,178.511206 L72.7871232,178.511206 L72.7871232,14.202005 L0.15,14.202005 Z" id="Rectangle" stroke="#979797" stroke-width="0.3" fill="#767676"></path>
                        <path d="M21.0397176,0.15 L0.466255316,14.9059 L72.8828652,14.9339143 L93.4533024,0.15 L21.0397176,0.15 Z" id="Rectangle" stroke="#979797" stroke-width="0.3" fill="#767676"></path>
                        <polygon id="Path-17" fill="#111111" points="93.3709195 0 72.9371232 14.703352 72.9371232 178.661206 94.918174 170.169283"></polygon>
                        <g id="Group-3" transform="translate(10.990525, 43.159730)" fill="#999999" stroke="#979797">
                            <rect id="Rectangle-Copy-8" x="0.5" y="53.696876" width="19.9819121" height="17.0668636"></rect>
                            <rect id="Rectangle-Copy-4" x="0.5" y="0.5" width="19.9819121" height="17.0668636"></rect>
                        </g>
                        <g id="Group-3" transform="translate(41.963824, 43.159730)" fill="#999999" stroke="#979797">
                            <rect id="Rectangle-Copy-8" x="0.5" y="53.696876" width="19.9819121" height="17.0668636"></rect>
                            <rect id="Rectangle-Copy-4" x="0.5" y="0.5" width="19.9819121" height="17.0668636"></rect>
                        </g>
                        <path d="M20.9819121,178.661206 L20.9819121,147.546052 C41.5803848,147.546052 51.9048177,147.546052 51.955211,147.546052 L51.8796211,178.661206 L20.9819121,178.661206 Z" id="Path-18" fill="#CCCCCC"></path>
                        <ellipse id="Oval" stroke="#979797" fill="#D8D8D8" cx="34.4702842" cy="164.107344" rx="1.49870801" ry="1.50557196"></ellipse>
                        <ellipse id="Oval-Copy-3" stroke="#979797" fill="#D8D8D8" cx="38.4668389" cy="164.107344" rx="1.49870801" ry="1.50557196"></ellipse>
                    </g>
                    <g id="Group-5-Copy" transform="translate(312.001722, 134.000000)">
                        <path d="M0.15,15.4415604 L0.15,237.73131 L72.7871232,237.73131 L72.7871232,15.4415604 L0.15,15.4415604 Z" id="Rectangle" stroke="#979797" stroke-width="0.3" fill="#555555"></path>
                        <path d="M22.0282932,0.769749942 L1.47515231,15.1417378 L73.8501856,15.1687155 L94.3998651,0.769749942 L22.0282932,0.769749942 Z" id="Rectangle" stroke="#979797" stroke-width="0.3" fill="#555555"></path>
                        <polygon id="Path-17" fill="#111111" points="94.8753357 0.619749942 72.9371232 14.1228646 72.9371232 237.497341 94.918174 226.069943"></polygon>
                        <g id="Group-3" transform="translate(10.990525, 50.185930)" fill="#7C7B7B" stroke="#828282">
                            <rect id="Rectangle" x="0.5" y="0.5" width="19.9819121" height="17.0669349"></rect>
                            <rect id="Rectangle-Copy-8" x="0.5" y="105.890454" width="19.9819121" height="17.0669349"></rect>
                            <rect id="Rectangle-Copy-4" x="0.5" y="52.6933676" width="19.9819121" height="17.0669349"></rect>
                        </g>
                        <g id="Group-3" transform="translate(41.963824, 50.185930)" fill="#7C7B7B" stroke="#828282">
                            <rect id="Rectangle" x="0.5" y="0.5" width="19.9819121" height="17.0669349"></rect>
                            <rect id="Rectangle-Copy-8" x="0.5" y="105.890454" width="19.9819121" height="17.0669349"></rect>
                            <rect id="Rectangle-Copy-4" x="0.5" y="52.6933676" width="19.9819121" height="17.0669349"></rect>
                        </g>
                        <path d="M20.9819121,237.5355 L20.9819121,206.389638 C41.5803848,206.389638 51.9048177,206.389638 51.955211,206.389638 L51.8796211,237.5355 L20.9819121,237.5355 Z" id="Path-18" fill="#CCCCCC"></path>
                        <ellipse id="Oval" stroke="#979797" fill="#D8D8D8" cx="34.4702842" cy="223.32739" rx="1.49870801" ry="1.50557791"></ellipse>
                        <ellipse id="Oval-Copy-3" stroke="#979797" fill="#D8D8D8" cx="38.4668389" cy="223.32739" rx="1.49870801" ry="1.50557791"></ellipse>
                    </g>
                    <g id="Group-5-Copy-3" transform="translate(216.001722, 135.000000)">
                        <path d="M0.15,15.4415604 L0.15,237.73131 L72.7871232,237.73131 L72.7871232,15.4415604 L0.15,15.4415604 Z" id="Rectangle" stroke="#979797" stroke-width="0.3" fill="#767676"></path>
                        <path d="M22.0282932,0.769749942 L1.47515231,15.1417378 L73.8501856,15.1687155 L94.3998651,0.769749942 L22.0282932,0.769749942 Z" id="Rectangle" stroke="#979797" stroke-width="0.3" fill="#767676"></path>
                        <polygon id="Path-17" fill="#111111" points="94.8753357 0.619749942 72.9371232 14.1228646 72.9371232 237.497341 94.918174 226.069943"></polygon>
                        <g id="Group-3" transform="translate(10.990525, 50.185930)" fill="#999999" stroke="#979797">
                            <rect id="Rectangle" x="0.5" y="0.5" width="19.9819121" height="17.0669349"></rect>
                            <rect id="Rectangle-Copy-8" x="0.5" y="105.890454" width="19.9819121" height="17.0669349"></rect>
                            <rect id="Rectangle-Copy-4" x="0.5" y="52.6933676" width="19.9819121" height="17.0669349"></rect>
                        </g>
                        <g id="Group-3" transform="translate(41.963824, 50.185930)" fill="#999999" stroke="#979797">
                            <rect id="Rectangle" x="0.5" y="0.5" width="19.9819121" height="17.0669349"></rect>
                            <rect id="Rectangle-Copy-8" x="0.5" y="105.890454" width="19.9819121" height="17.0669349"></rect>
                            <rect id="Rectangle-Copy-4" x="0.5" y="52.6933676" width="19.9819121" height="17.0669349"></rect>
                        </g>
                        <path d="M20.9819121,237.5355 L20.9819121,206.389638 C41.5803848,206.389638 51.9048177,206.389638 51.955211,206.389638 L51.8796211,237.5355 L20.9819121,237.5355 Z" id="Path-18" fill="#CCCCCC"></path>
                        <ellipse id="Oval" stroke="#979797" fill="#D8D8D8" cx="34.4702842" cy="223.32739" rx="1.49870801" ry="1.50557791"></ellipse>
                        <ellipse id="Oval-Copy-3" stroke="#979797" fill="#D8D8D8" cx="38.4668389" cy="223.32739" rx="1.49870801" ry="1.50557791"></ellipse>
                    </g>
                    <g id="Group-5-Copy-4" transform="translate(120.001722, 135.000000)">
                        <path d="M0.15,15.4415604 L0.15,237.73131 L72.7871232,237.73131 L72.7871232,15.4415604 L0.15,15.4415604 Z" id="Rectangle" stroke="#979797" stroke-width="0.3" fill="#CDCDCD"></path>
                        <path d="M22.0282932,0.769749942 L1.47515231,15.1417378 L73.8501856,15.1687155 L94.3998651,0.769749942 L22.0282932,0.769749942 Z" id="Rectangle" stroke="#979797" stroke-width="0.3" fill="#CDCDCD"></path>
                        <polygon id="Path-17" fill="#525151" points="94.8753357 0.619749942 72.9371232 14.1228646 72.9371232 237.497341 94.918174 226.069943"></polygon>
                        <g id="Group-3" transform="translate(10.990525, 50.185930)" fill="#C4C2C2" stroke="#979797">
                            <rect id="Rectangle" x="0.5" y="0.5" width="19.9819121" height="17.0669349"></rect>
                            <rect id="Rectangle-Copy-8" x="0.5" y="105.890454" width="19.9819121" height="17.0669349"></rect>
                            <rect id="Rectangle-Copy-4" x="0.5" y="52.6933676" width="19.9819121" height="17.0669349"></rect>
                        </g>
                        <g id="Group-3" transform="translate(41.963824, 50.185930)" fill="#C4C2C2" stroke="#979797">
                            <rect id="Rectangle" x="0.5" y="0.5" width="19.9819121" height="17.0669349"></rect>
                            <rect id="Rectangle-Copy-8" x="0.5" y="105.890454" width="19.9819121" height="17.0669349"></rect>
                            <rect id="Rectangle-Copy-4" x="0.5" y="52.6933676" width="19.9819121" height="17.0669349"></rect>
                        </g>
                        <path d="M20.9819121,237.5355 L20.9819121,206.389638 C41.5803848,206.389638 51.9048177,206.389638 51.955211,206.389638 L51.8796211,237.5355 L20.9819121,237.5355 Z" id="Path-18" fill="#CCCCCC"></path>
                        <ellipse id="Oval" stroke="#979797" fill="#D8D8D8" cx="34.4702842" cy="223.32739" rx="1.49870801" ry="1.50557791"></ellipse>
                        <ellipse id="Oval-Copy-3" stroke="#979797" fill="#D8D8D8" cx="38.4668389" cy="223.32739" rx="1.49870801" ry="1.50557791"></ellipse>
                    </g>
                    <g id="Group-5-Copy-5" transform="translate(780.001722, 134.000000)">
                        <path d="M0.15,15.2060405 L0.15,237.73544 L226.654479,237.73544 L226.654479,15.2060405 L0.15,15.2060405 Z" id="Rectangle" stroke="#979797" stroke-width="0.3" fill="#CDCDCD"></path>
                        <path d="M68.2221054,0.15 L4.31370884,14.9060629 L229.637633,14.909901 L293.432137,0.15 L68.2221054,0.15 Z" id="Rectangle" stroke="#979797" stroke-width="0.3" fill="#CDCDCD"></path>
                        <polygon id="Path-17" fill="#525151" points="294.613499 1.00373603 226.804479 14.5070851 226.804479 237.88544 294.745909 226.457843"></polygon>
                        <g id="Group-3" transform="translate(33.970715, 50.186802)" fill="#BBB9B9" stroke="#B5B4B4">
                            <rect id="Rectangle" x="0.5" y="0.5" width="29.9732989" height="17.0672486"></rect>
                            <rect id="Rectangle-Copy-8" x="0.5" y="105.892283" width="29.9732989" height="17.0672486"></rect>
                            <rect id="Rectangle-Copy-8" x="42.4638243" y="150.056669" width="29.9732989" height="37.1419693"></rect>
                            <rect id="Rectangle-Copy-9" x="78.4328165" y="150.056669" width="29.9732989" height="37.1419693"></rect>
                            <rect id="Rectangle-Copy-4" x="0.5" y="52.6942737" width="29.9732989" height="17.0672486"></rect>
                        </g>
                        <g id="Group-3-Copy" transform="translate(80.930233, 50.186802)" fill="#BBB9B9" stroke="#B5B4B4">
                            <rect id="Rectangle" x="0.5" y="0.5" width="29.9732989" height="17.0672486"></rect>
                            <rect id="Rectangle-Copy-8" x="0.5" y="105.892283" width="29.9732989" height="17.0672486"></rect>
                            <rect id="Rectangle-Copy-4" x="0.5" y="52.6942737" width="29.9732989" height="17.0672486"></rect>
                        </g>
                        <g id="Group-3" transform="translate(130.887166, 50.186802)" fill="#BBB9B9" stroke="#B5B4B4">
                            <rect id="Rectangle" x="0.5" y="0.5" width="28.9741602" height="17.0672486"></rect>
                            <rect id="Rectangle-Copy-8" x="0.5" y="105.892283" width="28.9741602" height="17.0672486"></rect>
                            <rect id="Rectangle-Copy-4" x="0.5" y="52.6942737" width="28.9741602" height="17.0672486"></rect>
                        </g>
                        <g id="Group-3-Copy-2" transform="translate(180.844100, 50.186802)" fill="#BBB9B9" stroke="#B5B4B4">
                            <rect id="Rectangle" x="0.5" y="0.5" width="28.9741602" height="17.0672486"></rect>
                            <rect id="Rectangle-Copy-8" x="0.5" y="105.892283" width="28.9741602" height="17.0672486"></rect>
                            <rect id="Rectangle-Copy-4" x="0.5" y="52.6942737" width="28.9741602" height="17.0672486"></rect>
                        </g>
                    </g>
                    <g id="Group-7" transform="translate(0.001722, 241.000000)">
                        <g id="Group-6" transform="translate(136.881998, 78.293181)">
                            <path d="M6.68658418,45.4829779 C6.90855641,45.3449145 8.43792897,48.1278616 11.2747019,53.8318193 L15.8628196,58.1040376 L15.8628196,62.1806607 L9.99138674,54.6300221 C7.5662128,48.670056 6.46461195,45.6210413 6.68658418,45.4829779 Z" id="Path-22" fill="#7D3905"></path>
                            <path d="M9.99138674,15.8680868 C18.6505886,57.2782334 15.3201263,82.3328498 -1.10134124e-13,91.031936 L39.0160948,91.2019664 C23.6297198,48.2652888 19.783126,23.451339 27.4763135,16.7601169 C47.2452491,-0.434100513 4.61582059,-9.83901487 9.99138674,15.8680868 Z" id="Path-21" fill="#984706"></path>
                        </g>
                        <g id="Group-6-Copy" transform="translate(60.947459, 78.293181)">
                            <path d="M6.68658418,45.4829779 C6.90855641,45.3449145 8.43792897,48.1278616 11.2747019,53.8318193 L15.8628196,58.1040376 L15.8628196,62.1806607 L9.99138674,54.6300221 C7.5662128,48.670056 6.46461195,45.6210413 6.68658418,45.4829779 Z" id="Path-22" fill="#7D3905"></path>
                            <path d="M9.99138674,15.8680868 C18.6505886,57.2782334 15.3201263,82.3328498 -1.10134124e-13,91.031936 L39.0160948,91.2019664 C23.6297198,48.2652888 19.783126,23.451339 27.4763135,16.7601169 C47.2452491,-0.434100513 4.61582059,-9.83901487 9.99138674,15.8680868 Z" id="Path-21" fill="#984706"></path>
                        </g>
                        <path d="M91.4282193,42.0299681 C68.8541066,22.1377924 55.5336497,18.7921814 51.4668486,31.9931349 C45.366647,51.7945652 34.1033821,23.5673146 26.2547542,34.5030894 C18.4061264,45.4388643 -6.33197828,45.0402718 26.2547542,67.122051 C5.678288,61.4878383 -2.8034841,69.3748443 0.809437931,90.783069 C4.02093066,106.391581 15.0815475,112.727986 33.9912885,109.792287 C52.3648871,133.047999 69.8029173,138.608848 86.3053791,126.474834 C102.807841,114.34082 102.807841,103.589958 86.3053791,94.2222467 C99.8746658,110.281677 112.481934,112.623605 124.127184,101.24803 C143.133669,78.3296332 144.672517,63.2321987 128.743727,55.9557264 C120.744821,29.990618 108.306318,25.3486985 91.4282193,42.0299681 Z" id="Path-20-Copy-3" fill="#3E902E"></path>
                        <path d="M171.968039,46.4190996 C164.92026,19.9757537 153.725981,18.8622963 138.385201,43.0787272 C135.845198,24.8459638 123.040467,35.6731575 116.131515,45.2283726 C109.222562,54.7835876 100.160354,62.227048 116.19162,73.7728803 C101.994479,78.4604023 96.3742047,87.5291958 99.330798,100.979261 C106.21172,113.47219 114.134917,116.854939 123.100389,111.127509 C139.364237,131.512435 154.76952,136.411037 169.316238,125.823316 C183.862956,115.235594 183.843145,105.827628 169.256807,97.5994181 C181.265944,111.678038 192.400493,113.750831 202.660455,103.817797 C219.397959,83.7974239 220.7287,70.5886747 206.652678,64.1915498 C199.543058,41.4549138 187.981511,35.5307638 171.968039,46.4190996 Z" id="Path-20-Copy-2" fill="#619937" transform="translate(157.432126, 78.483540) rotate(-124.000000) translate(-157.432126, -78.483540) "></path>
                    </g>
                    <g id="Group-8" transform="translate(958.001722, 249.000000)">
                        <g id="Group-6" transform="translate(25.977606, 74.274858)">
                            <path d="M6.68658418,45.4843817 C6.90855641,45.3463141 8.43792897,48.1293471 11.2747019,53.8334808 L15.8628196,58.105831 L15.8628196,62.1825799 L9.99138674,54.6317083 C7.5662128,48.6715582 6.46461195,45.6224494 6.68658418,45.4843817 Z" id="Path-22" fill="#7D3905"></path>
                            <path d="M9.99138674,15.8685766 C18.6505886,57.2800013 15.3201263,82.335391 -1.10134124e-13,91.0347458 L39.0160948,91.2047814 C23.6297198,48.2667785 19.783126,23.4520628 27.4763135,16.7606342 C47.2452491,-0.434113911 4.61582059,-9.83931856 9.99138674,15.8685766 Z" id="Path-21" fill="#984706"></path>
                        </g>
                        <path d="M98.42219,17.9362397 C75.8480773,-1.95654991 62.5276204,-5.30226423 58.4608193,7.89909676 C52.3606178,27.7011382 41.0973528,-0.526983626 33.248725,10.4091288 C25.4000971,21.3452411 0.661992437,20.9466363 33.248725,43.0290971 C12.6722587,37.3947105 4.19048662,45.2819599 7.80340865,66.6908454 C11.0149014,82.2998388 22.0755182,88.6364402 40.9852592,85.7006497 C59.3588578,108.95708 76.796888,114.518101 93.2993498,102.383712 C109.801812,90.2493237 109.801812,79.4981294 93.2993498,70.1301293 C106.868637,86.1900555 119.475905,88.5320555 131.121155,77.1561294 C150.12764,54.2370253 151.666488,39.1391248 135.737698,31.8624279 C127.738792,5.89651804 115.300289,1.2544553 98.42219,17.9362397 Z" id="Path-20" fill="#318720"></path>
                        <path d="M91.4282193,47.0439543 C68.8541066,27.1511646 55.5336497,23.8054503 51.4668486,37.0068113 C45.366647,56.8088528 34.1033821,28.5807309 26.2547542,39.5168433 C18.4061264,50.4529557 -6.33197828,50.0543509 26.2547542,72.1368116 C5.678288,66.5024251 -2.8034841,74.3896745 0.809437931,95.79856 C4.02093066,111.407553 15.0815475,117.744155 33.9912885,114.808364 C52.3648871,138.064794 69.8029173,143.625815 86.3053791,131.491427 C102.807841,119.357038 102.807841,108.605844 86.3053791,99.2378439 C99.8746658,115.29777 112.481934,117.63977 124.127184,106.263844 C143.133669,83.3447398 144.672517,68.2468394 128.743727,60.9701425 C120.744821,35.0042326 108.306318,30.3621699 91.4282193,47.0439543 Z" id="Path-20-Copy" fill="#3E902E"></path>
                        <g id="Group-6-Copy-2" transform="translate(106.907838, 88.326858)">
                            <path d="M6.68658418,45.4843817 C6.90855641,45.3463141 8.43792897,48.1293471 11.2747019,53.8334808 L15.8628196,58.105831 L15.8628196,62.1825799 L9.99138674,54.6317083 C7.5662128,48.6715582 6.46461195,45.6224494 6.68658418,45.4843817 Z" id="Path-22" fill="#7D3905"></path>
                            <path d="M9.99138674,15.8685766 C18.6505886,57.2800013 15.3201263,82.335391 -1.10134124e-13,91.0347458 L39.0160948,91.2047814 C23.6297198,48.2667785 19.783126,23.4520628 27.4763135,16.7606342 C47.2452491,-0.434113911 4.61582059,-9.83931856 9.99138674,15.8685766 Z" id="Path-21" fill="#984706"></path>
                        </g>
                        <path d="M148.379124,43.0290971 C125.805011,23.1363075 112.484554,19.7905931 108.417753,32.9919541 C102.317551,52.7939956 91.0542864,24.5658737 83.2056586,35.5019861 C75.3570308,46.4380985 50.6189261,46.0394937 83.2056586,68.1219545 C62.6291924,62.4875679 54.1474203,70.3748173 57.7603423,91.7837028 C60.971835,107.392696 72.0324519,113.729298 90.9421929,110.793507 C109.315791,134.049937 126.753822,139.610958 143.256283,127.47657 C159.758745,115.342181 159.758745,104.590987 143.256283,95.2229867 C156.82557,111.282913 169.432839,113.624913 181.078089,102.248987 C200.084574,79.3298827 201.623421,64.2319822 185.694632,56.9552853 C177.695726,30.9893754 165.257223,26.3473127 148.379124,43.0290971 Z" id="Path-20-Copy-2" fill="#619937"></path>
                    </g>
                    <g id="Group-4" transform="translate(381.001722, 290.000000)">
                        <polygon id="Path-4" fill="#D8D8D8" points="0 84.3093985 177.179078 0 223.345779 2.00736663 155.152479 81.8001903"></polygon>
                        <path d="M91.7527215,79.290982 L174.181662,30.1104995" id="Path-19" stroke="#979797" stroke-width="3" stroke-linecap="round"></path>
                    </g>
                    <g id="Person-Blue" transform="translate(463.001722, 300.000000)" fill-rule="nonzero">
                        <path d="M1.06411939,36.1325994 C1.06411939,36.1325994 -0.0471514954,38.0257432 0.00155559014,38.2015082 C0.0502626757,38.3776496 0.172405059,38.4194268 0.285180696,38.2462963 C0.397581663,38.0724131 1.42043046,36.4423523 1.42043046,36.4423523 C1.42043046,36.4423523 0.54182957,38.860533 0.544452259,39.0125867 C0.545201599,39.1025393 0.77674759,39.1966319 0.847185529,39.1081849 C0.917248798,39.0197378 1.94796566,36.6621527 1.94796566,36.6621527 C1.94796566,36.6621527 1.13193464,38.920376 1.17951772,39.0464601 C1.21998207,39.157113 1.45939613,39.1973847 1.53283143,39.0332871 C1.60664139,38.8684368 2.50210243,36.8059263 2.50210243,36.8059263 C2.50210243,36.8059263 2.02926903,38.4781406 2.14354334,38.5635767 C2.21323194,38.6155158 2.40843496,38.705092 2.51446653,38.2707604 C2.62087278,37.8356761 2.99741602,36.8303904 2.99741602,36.8303904 L1.06411939,36.1325994 Z" id="Path" fill="#FCC7AE"></path>
                        <path d="M2.64196695,34.1948671 C2.64196695,34.1948671 2.26190819,34.8103756 1.8355719,34.7839021 C1.47336825,34.7618409 0.981077374,34.9787763 0.829126749,35.04496 C0.626161525,35.1339403 -0.0993389438,35.1920349 0.011435613,35.4302963 C0.12184578,35.6685576 1.21027868,35.3887476 1.45004729,35.3714663 C1.68945151,35.3560234 1.04047294,36.1730245 1.04484562,36.4061382 C1.0492183,36.6407226 2.52463337,37.5364088 2.9021414,36.9282541 C3.28001382,36.3215701 3.26215871,35.4490483 3.35106986,35.3545527 C3.43961663,35.2596894 3.64403942,34.9225202 3.64403942,34.9225202 L2.64196695,34.1948671 Z M30.8166009,1.4512156 C30.7091059,1.44386186 30.1625209,2.45831095 29.9347771,2.89071114 L29.912185,2.87306215 C30.120616,2.31344218 30.6777683,0.81695512 30.7298761,0.670983286 C30.7943731,0.491551915 30.6037972,0.363596756 30.4988528,0.42426515 C30.4011963,0.479785923 29.7008388,2.04833968 29.4483165,2.61972564 L29.4355629,2.61494571 C29.661849,2.00054034 30.3053618,0.249613713 30.3170222,0.153279656 C30.3308691,0.036355115 30.1082268,-0.0438007027 30.0448229,0.0260598724 C29.9537254,0.126070801 29.1721089,1.90383859 28.9225017,2.47301844 L28.8867915,2.46750313 C28.9972017,1.97590529 29.2978234,0.632743814 29.333898,0.459930812 C29.378718,0.247407589 29.2661215,0.198505187 29.110527,0.305502173 C28.9706012,0.401468542 28.5001738,2.21931424 28.4057967,2.58883992 C28.2760739,2.91093394 28.1951793,3.75257002 28.0494233,3.5889492 C27.8843547,3.40253177 27.2761878,2.3961718 27.0320465,2.50169804 C26.7879052,2.6064889 27.2812892,3.1771395 27.3694716,3.3929719 C27.4354262,3.55512198 27.6489587,4.07981166 27.9302678,4.32542674 C28.2614983,4.61295816 28.1193862,5.36634931 28.1193862,5.36634931 L29.2642996,5.51526264 C29.2642996,5.51526264 29.3656,5.13728016 29.4341053,4.97917464 C29.4876706,4.85305792 30.0433654,4.17614572 30.1821979,3.430476 L30.1872994,3.39444265 C30.1872994,3.39444265 30.6329484,2.34653403 30.8639716,1.93141514 C31.0953593,1.51592856 30.9004106,1.45636323 30.8166009,1.4512156 L30.8166009,1.4512156 Z" id="Shape" fill="#FCC7AE"></path>
                        <path d="M24.9784668,56.4939031 C24.9784668,56.4939031 24.2625126,57.965028 24.1606005,58.1878475 C24.0578319,58.4098067 21.9810508,57.1257986 21.9810508,57.1257986 L22.4161043,55.2025824 C22.4161043,55.2025824 24.7759272,56.1609643 24.9784668,56.4939031" id="Path" fill="#424773"></path>
                        <path d="M24.2404377,57.0223486 C24.2404377,57.0223486 24.5879643,57.9782166 25.0719675,58.5143641 C25.5552466,59.0508765 27.6834849,60.1166019 27.9151693,60.5753748 C28.0831405,60.9060416 28.1468537,62.0181188 24.6437133,60.6520194 C22.1538302,59.6811874 20.8614657,59.4519834 20.7420034,58.9621877 C20.6225411,58.472392 22.2385398,56.2062657 22.2385398,56.2062657 C22.2385398,56.2062657 22.7149408,56.631096 24.2404377,57.0223486 L24.2404377,57.0223486 Z M6.61758172,62.2454979 C6.61758172,62.2454979 6.11982229,64.0667203 5.98189768,64.6817023 C5.84433507,65.2974142 6.05104099,66.9069515 5.91311637,67.5219334 C5.77482975,68.1372803 5.43237126,68.313928 5.15652203,68.2314437 C4.53772373,68.0468785 3.98877423,67.6779121 3.58179219,67.1730178 C2.98411886,66.4401492 3.2183373,65.0868239 3.14593593,64.2225644 C3.07860265,63.4130511 2.73324811,62.986396 3.40513284,62.3137481 C4.27069125,61.4472987 4.38617143,60.9509335 4.38617143,60.9509335 L6.61758172,62.2454979 L6.61758172,62.2454979 Z" id="Shape" fill="#8B92DB"></path>
                        <path d="M17.9844961,36.6202823 C17.9844961,36.6202823 17.6833604,40.1671993 17.3829217,42.2919911 C17.105835,44.2492325 15.5426477,50.434414 14.9961421,51.2471636 C14.0014182,52.7267561 11.733141,55.1974702 11.2633135,55.8475206 C9.4894681,58.3079536 7.7169261,60.7694634 5.94568836,63.2320489 C5.94568836,63.2320489 4.66934679,62.9357573 2.99741602,61.2744343 C2.99741602,61.2744343 7.74553212,55.6445198 8.45410733,53.9798384 C8.99155099,52.7140685 11.3176852,49.0686364 11.3061835,48.4823968 C11.2873625,47.5028432 11.9534163,36.6102068 12.8989965,34.6678919 C13.8442281,32.7259502 17.9844961,36.6202823 17.9844961,36.6202823" id="Path" fill="#292C47"></path>
                        <path d="M20.9650361,34.3044387 C20.9650361,34.3044387 27.1840375,40.0458869 27.945919,41.3501861 C28.7089138,42.6533682 29.1987743,42.8190585 28.8722006,44.206389 C28.545627,45.5933472 23.8084535,56.7809797 23.7253257,57.1313496 C23.6344046,57.5170915 21.2196151,56.359121 21.0017756,56.3308234 C20.7839362,56.302898 22.0174939,52.955954 22.4806347,51.5972935 C22.9434044,50.2382607 24.3651131,45.5933472 24.7466105,44.8993096 C25.1281079,44.2067614 17.0814074,39.9628556 16.2371403,38.9366927 C15.3928732,37.9105299 16.6082467,33.1490747 20.9650361,34.3048111" id="Path" fill="#292C47"></path>
                        <path d="M27.4448558,13.0913721 C28.0632605,11.7275806 29.9741602,5.23359747 29.9741602,5.23359747 L28.304321,5.01841658 C28.304321,5.01841658 27.4173793,6.59555299 26.3897578,9.48066609 C26.0834862,10.3413897 24.8316564,11.9409254 24.7704754,12.0870722 C24.708928,12.2332189 22.3100454,15.3269033 21.3538628,15.8890909 C20.9069116,16.151641 19.938273,16.8258255 19.3158384,17.6417503 C18.6926711,18.4584095 19.1374243,19.4322316 19.1374243,19.4322316 C20.8237493,21.2506203 23.6142638,18.6251196 23.6142638,18.6251196 C23.6142638,18.6251196 26.3219824,15.5718276 27.4448558,13.0913721" id="Path" fill="#5F8DE0"></path>
                        <path d="M16.7319553,16.2329852 C16.7319553,16.2329852 19.042418,16.6829558 20.0738745,16.0589331 C20.4669741,16.3308208 21.303982,20.0060692 21.4334871,20.8481151 C21.5626102,21.6897946 21.5698686,25.2631767 21.3521166,26.6171191 C21.1343647,27.971428 22.4007641,34.1808755 21.833463,35.1749881 C21.833463,35.1749881 17.109392,39.2664959 11.5047627,39.1408119 C11.5047627,39.1408119 11.4589202,31.3854149 11.0432814,29.6064189 C10.5103622,27.3272519 9.2538953,22.0771064 9.2538953,22.0771064 C9.2538953,22.0771064 8.66825719,18.5594211 9.24931105,18.2736091 C10.5023397,17.6580142 13.8492253,16.4462449 13.8492253,16.4462449 L16.7319553,16.2329852 L16.7319553,16.2329852 Z" id="Path" fill="#5F8DE0"></path>
                        <path d="M17.9844961,16.9612332 C17.9844961,16.9612332 17.2876296,17.3630909 14.7933707,16.5666754 C14.7933707,16.5666754 14.6854618,14.9212852 14.0547213,13.440872 C13.4239808,11.9608238 17.4689312,15.1380912 17.4689312,15.1380912 C17.4336882,15.1691157 17.4424081,15.3224129 17.4870977,15.5333791 C17.5252473,15.7122258 17.58883,15.9323168 17.6723958,16.1538678 C17.8606007,16.6509888 17.8202711,16.5633904 17.9844961,16.9612332" id="Path" fill="#FCC7AE"></path>
                        <path d="M16.9853575,16.0589331 C14.5076184,15.8622111 13.995435,14.0791677 13.9879414,14.0515664 C15.0647631,15.5345085 16.7950215,15.2158391 16.7950215,15.2158391 C16.8339879,15.4597341 16.8995564,15.7583299 16.9853575,16.0589331" id="Path" fill="#E79B74"></path>
                        <path d="M8.52009169,29.6742586 C7.52617627,30.7459515 3.52743436,36.1325994 3.52743436,36.1325994 L1.99827735,34.9210733 C1.99827735,34.9210733 3.3178805,32.5417417 5.16393276,29.9239348 C5.67572777,29.1976696 6.35384699,27.4896816 6.45349498,27.371528 C6.55350932,27.2533744 7.68297531,24.3465068 7.85516117,23.2585542 C7.92330281,22.8267697 8.71389237,20.9641342 8.98242905,19.8776269 C9.28393749,18.6621263 12.1286678,18.0662997 12.1286678,18.0662997 C14.4777226,18.8012368 11.2706693,23.3532216 11.2706693,23.3532216 C11.2706693,23.3532216 9.91259907,28.1722264 8.52009169,29.6742586" id="Path" fill="#5F8DE0"></path>
                        <path d="M11.5163977,24.0883996 L7.99310939,23.3977742 C7.99310939,23.3977742 8.0659768,19.3480489 10.5200473,18.0251031 C12.9744895,16.7029784 14.3132424,16.6976406 14.3132424,16.6976406 L11.5163977,24.0883996 Z M22.3628612,15.0552497 L23.9793282,18.619238 C23.9793282,18.619238 22.7008024,19.7865673 22.2468682,22.8130831 C21.8691473,25.3312789 19.8898303,16.5555738 19.8898303,16.5555738 C19.8898303,16.5555738 20.7891481,16.4627787 22.3628612,15.0552497 L22.3628612,15.0552497 Z" id="Shape" fill="#5F8DE0"></path>
                        <path d="M17.7077964,16.1867536 C17.7077964,16.1867536 20.2757019,19.2111475 18.1253191,19.9411506 C15.3193833,20.8939685 12.9888028,16.3961862 12.9888028,16.3961862 C12.9888028,16.3961862 14.6070558,15.8063625 17.7077964,16.1867536" id="Path" fill="#FCC7AE"></path>
                        <path d="M16.7105496,8.20406053 C16.7105496,8.20406053 18.8263874,8.4158394 18.9773171,11.9147073 C19.1430578,15.7742349 16.0003334,15.2262195 15.1208502,14.6430748 C14.2410144,14.0602647 13.3692892,12.6387033 13.1203256,11.5048667 C12.8710094,10.3713646 12.5342386,7.26427091 16.7105496,8.20406053" id="Path" fill="#FCC7AE"></path>
                        <path d="M16.8961146,9.48009253 C15.1325264,10.090214 13.6255069,11.8000333 13.9972924,14.0515664 C13.9972924,14.0515664 10.7855813,10.3908375 12.4865918,8.35709923 C14.1872342,6.32447026 18.3033778,6.35442168 18.9836348,10.3165136 C18.9836348,10.3165136 18.6597029,8.86997105 16.8961146,9.48009253 Z" id="Path" fill="#323657"></path>
                        <path d="M15.9862188,9.40126472 C15.9862188,9.40126472 18.3944284,11.0903753 18.9836348,11.0393848 C18.9836348,11.0393848 18.8102129,8.00284014 15.9862188,9.40126472" id="Path" fill="#323657"></path>
                        <path d="M13.7641064,11.5610863 C13.5919346,11.181291 13.0987308,10.7199962 12.9981585,11.3551297 C12.8979193,11.9902631 13.6318971,13.2537049 13.8273803,13.0192435 C14.0225305,12.7839792 14.0814752,12.2604558 13.7641064,11.5610863" id="Path" fill="#FCC7AE"></path>
                    </g>
                    <g id="Group-5" transform="translate(516.001722, 71.000000)">
                        <rect id="Rectangle" stroke="#979797" stroke-width="0.3" fill="#555555" x="0.15" y="25.3254417" width="93.6190353" height="275.622841"></rect>
                        <path d="M22.400327,0.15 L0.32508397,26.0324594 L93.7345502,26.0324594 L107.655975,0.15 L22.400327,0.15 Z" id="Rectangle" stroke="#979797" stroke-width="0.3" fill="#555555"></path>
                        <polygon id="Path-17" fill="#111111" points="107.906977 -1.3460891e-13 93.9190353 25.3027789 93.9190353 303.112318 105.706661 283.005155"></polygon>
                        <g id="Group-3" transform="translate(13.987941, 73.512290)" fill="#999999" stroke="#979797">
                            <rect id="Rectangle" x="0.5" y="0.5" width="25.9767442" height="20.9578974"></rect>
                            <rect id="Rectangle-Copy-8" x="0.5" y="128.587735" width="25.9767442" height="20.9578974"></rect>
                            <rect id="Rectangle-Copy-4" x="0.5" y="63.9339259" width="25.9767442" height="20.9578974"></rect>
                        </g>
                        <g id="Group-3" transform="translate(52.954350, 73.512290)" fill="#999999" stroke="#979797">
                            <rect id="Rectangle" x="0.5" y="0.5" width="25.9767442" height="20.9578974"></rect>
                            <rect id="Rectangle-Copy-8" x="0.5" y="128.587735" width="25.9767442" height="20.9578974"></rect>
                            <rect id="Rectangle-Copy-4" x="0.5" y="63.9339259" width="25.9767442" height="20.9578974"></rect>
                        </g>
                        <path d="M26.9767442,300.091265 L26.9767442,262.097498 C30.5184427,255.873456 37.3667707,252.761434 47.521728,252.761434 C62.754164,252.761434 66.8447557,262.097498 66.9422911,262.097498 L66.8447557,300.091265 L26.9767442,300.091265 Z" id="Path-18" fill="#CCCCCC"></path>
                    </g>
                    <g id="Group-5-Copy-2" transform="translate(617.001722, 172.000000)">
                        <rect id="Rectangle" stroke="#979797" stroke-width="0.3" fill="#555555" x="0.15" y="16.209732" width="108.606115" height="182.379452"></rect>
                        <path d="M25.8934264,0.15 L0.476397249,17.9171986 L108.526116,17.9171986 L124.554989,0.15 L25.8934264,0.15 Z" id="Rectangle" stroke="#979797" stroke-width="0.3" fill="#555555"></path>
                        <polygon id="Path-17" fill="#111111" points="124.892334 -8.82579272e-14 108.906115 16.5900669 108.906115 198.739184 122.377687 185.555685"></polygon>
                        <path d="M30.9732989,199.742917 L30.9732989,165.615987 C61.5387744,165.615987 76.8589007,165.615987 76.9336779,165.615987 L76.8215122,199.742917 L30.9732989,199.742917 Z" id="Path-18" fill="#818080"></path>
                        <path d="M17.9844961,49.0624472 C20.0874593,41.7820581 24.4937565,38.1418636 31.2033878,38.1418636 C37.913019,38.1418636 41.8328774,41.7820581 42.962963,49.0624472 L42.962963,67.250128 L17.9844961,67.250128 L17.9844961,49.0624472 Z" id="Path-3" stroke="#979797" fill="#818080"></path>
                        <path d="M17.9844961,103.264043 C20.0874593,95.9836538 24.4937565,92.3434593 31.2033878,92.3434593 C37.913019,92.3434593 41.8328774,95.9836538 42.962963,103.264043 L42.962963,121.451724 L17.9844961,121.451724 L17.9844961,103.264043 Z" id="Path-3-Copy-2" stroke="#979797" fill="#818080"></path>
                        <path d="M59.9483204,49.0624472 C62.0512836,41.7820581 66.4575808,38.1418636 73.167212,38.1418636 C79.8768433,38.1418636 83.7967017,41.7820581 84.9267873,49.0624472 L84.9267873,67.250128 L59.9483204,67.250128 L59.9483204,49.0624472 Z" id="Path-3-Copy" stroke="#979797" fill="#818080"></path>
                        <path d="M59.9483204,103.264043 C62.0512836,95.9836538 66.4575808,92.3434593 73.167212,92.3434593 C79.8768433,92.3434593 83.7967017,95.9836538 84.9267873,103.264043 L84.9267873,121.451724 L59.9483204,121.451724 L59.9483204,103.264043 Z" id="Path-3-Copy-3" stroke="#979797" fill="#818080"></path>
                    </g>
                    <g id="Woman" transform="translate(244.001722, 332.000000)">
                        <path d="M60.1602142,40.8954704 C60.1602142,40.8954704 63.1591084,40.8073684 63.7158752,41.163972 C64.2702524,41.5205756 64.9823404,41.4730284 65.1962058,41.4087 C65.4100711,41.3443715 67.3945983,39.4326964 68.0087144,39.0187566 C68.6228306,38.6062151 73.2131697,34.4598241 72.9240333,34.387105 C72.6348969,34.3143858 69.855842,34.5619107 67.0875402,36.4162494 C63.7182647,38.6719421 61.7456854,37.0035966 60.5114791,37.0077919 C59.4995017,37.0105888 60.1602142,40.8954704 60.1602142,40.8954704" id="Path" fill="#EEA886" fill-rule="nonzero"></path>
                        <g id="Group" transform="translate(31.972438, 123.349728)">
                            <g id="Clipped">
                                <mask id="mask-7" fill="white">
                                    <use xlink:href="#path-6"></use>
                                </mask>
                                <g id="af"></g>
                                <path d="M0.575059814,0.220816234 C0.575059814,0.220816234 -0.149787539,6.06876615 0.366989186,7.94447738 C0.883765911,9.82141537 1.55421571,12.0258974 3.5506058,12.2503939 C5.54699588,12.4761172 6.88245574,10.3182519 6.76278113,8.36770849 C6.64854627,6.47850294 5.98217628,5.21494338 5.23420997,3.75142246 C4.48624366,2.28790153 4.23465499,0.543453286 4.23465499,0.543453286 L0.576419753,0.220816234 L0.575059814,0.220816234 Z" id="Path" fill="#1C4054" fill-rule="nonzero" mask="url(#mask-7)"></path>
                            </g>
                        </g>
                        <path d="M24.4955771,124.394243 C24.4955771,124.394243 23.2134807,127.71844 22.407078,128.253395 C21.6006753,128.789519 18.0946807,129.396891 17.9976248,130.182972 C17.8981725,130.969052 18.3379196,132.255047 20.2071443,132.362505 C22.076369,132.469963 24.7519964,132.647503 25.8519632,131.683883 C26.9519301,130.719095 27.5378601,127.575941 28.3814077,127.432274 C28.3814077,127.432274 29.36994,128.752142 29.36994,130.075513 C29.36994,130.075513 29.8468319,130.29043 29.9570683,129.861765 C30.0661064,129.431932 29.6970543,123.931706 27.5726085,121.071214 C25.449361,118.213059 24.4955771,124.394243 24.4955771,124.394243" id="Path" fill="#1C4054" fill-rule="nonzero"></path>
                        <path d="M26.3733013,74.9287802 C26.3733013,74.9287802 29.4653325,83.4893023 29.2438842,85.1899257 C29.0224359,86.8917451 29.2485959,92.0462366 29.9506342,94.6258743 C30.6538505,97.204316 30.221555,102.668555 31.4077171,107.113856 C32.5974129,111.559156 33.1840154,122.560587 33.1840154,123.988537 C33.1840154,125.415291 36.1570771,126.401939 36.3184516,123.493419 C36.4810041,120.584898 39.1289608,106.317361 38.588297,102.476009 C38.0476333,98.6346575 36.5351883,93.805461 37.2925887,90.8993324 C38.0476333,87.9896159 38.9664083,84.3695125 38.9664083,82.4476406 C38.9664083,80.5269646 26.3744793,74.9287802 26.3744793,74.9287802 M25.4003422,75.1488327 C25.4003422,75.1488327 17.3481039,87.7707593 16.754434,89.0862908 C16.1584081,90.4042142 16.2125923,93.2027084 16.754434,94.1355398 C17.2939198,95.0683712 22.8607539,103.026141 23.6169764,105.933465 C24.3743768,108.843182 26.2119268,119.268171 26.6442222,120.366042 C27.0765176,121.463912 26.5181851,123.732606 25.6547722,124.171515 C24.7878255,124.609229 24.5475305,124.004084 24.5475305,124.004084 C24.5475305,124.004084 20.4731168,114.540629 18.5872723,111.239841 C17.0630481,108.57888 10.6434024,98.2459777 9.99790403,97.4267604 C9.17807404,96.3898824 8.18391239,93.3797072 7.99780156,91.0631758 C7.86116323,89.3733159 10.7541265,76.7956389 10.7541265,76.7956389 C10.7541265,76.7956389 9.77881154,71.3624939 25.4003422,75.1488327" id="Shape" fill="#EEA987" fill-rule="nonzero"></path>
                        <path d="M37.8492052,56.4720235 C37.8492052,56.4720235 41.9182601,64.7463598 40.7558376,71.9605087 C39.5934151,79.1746576 39.0646223,84.8777347 40.2270448,86.9457095 C40.2270448,86.9457095 31.4518492,87.2259889 23.4704189,83.8687288 C15.4889886,80.5139058 9.99138674,78.6140987 9.99138674,78.6140987 C9.99138674,78.6140987 13.0051601,64.1870196 14.2735716,60.7200848 C15.540831,57.2543687 16.5085564,53.3597032 16.5995687,51.8120733 C16.6905809,50.2644434 37.8492052,56.4708049 37.8492052,56.4708049" id="Path" fill="#1C4054" fill-rule="nonzero"></path>
                        <path d="M41.6038151,29.3208369 C41.6038151,29.3208369 48.447997,34.2444755 49.1824594,34.4605894 C49.9169219,34.6767033 61.1318753,35.9816085 63.2212529,36.6217285 C65.2134223,37.2324852 62.4603882,39.311407 62.4603882,39.311407 C62.4603882,39.311407 50.2889535,39.5815494 49.0816509,39.311407 C47.7987418,39.0224721 47.4087086,39.3865771 43.8852091,37.4826605 C41.9350464,36.4268913 39.9768249,35.3854435 38.0107097,34.3584051 C38.0107097,34.3584051 37.3026495,30.2980476 41.6038151,29.3208369" id="Path" fill="#EEA987" fill-rule="nonzero"></path>
                        <g id="Group" transform="translate(0.000000, 27.298710)">
                            <g id="Clipped">
                                <mask id="mask-9" fill="white">
                                    <use xlink:href="#path-8"></use>
                                </mask>
                                <g id="ah"></g>
                                <path d="M12.8047307,7.39082906 C12.8047307,7.39082906 7.00011926,15.1484104 7.00011926,15.7655986 C7.00011926,16.3815999 13.5944345,22.8810667 14.3691513,23.498255 L13.2070761,26.5841961 C13.2070761,26.5841961 0.652514411,19.5779228 0.0495726496,17.87116 C-0.546451998,16.165584 4.10876565,8.78306328 8.41121049,2.86873837 C12.7125025,-3.04202584 14.8372093,5.00515917 12.8047307,7.39082906" id="Path" fill="#CE4E2B" fill-rule="nonzero" mask="url(#mask-9)"></path>
                            </g>
                        </g>
                        <g id="Group" transform="translate(7.993109, 23.254457)">
                            <g id="Clipped">
                                <mask id="mask-11" fill="white">
                                    <use xlink:href="#path-10"></use>
                                </mask>
                                <g id="aj"></g>
                                <path d="M8.60258398,0.082900446 C7.52334195,0.101254788 6.55624462,0.200368237 5.60482343,0.742433146 C3.34022394,2.03457884 1.49767442,4.8366751 0.135055986,7.04653791 C0.135055986,7.27902625 0.845305771,7.15544034 0.9791559,7.25944828 C1.31920758,7.52986892 1.6664944,7.79050058 2.01498708,8.05113224 C2.77226529,8.61522236 3.53557278,9.16707626 4.30490956,9.71525928 C4.52075797,9.871883 4.89216193,10.0382957 5.05495263,10.2524297 C5.23944875,10.4922598 5.10559862,10.6904867 5.02962963,11.0392192 C4.78604651,12.168623 4.75348837,11.7758401 4.67269595,12.93094 C4.50267011,15.3475951 5.75314384,18.8569454 6.95658915,20.8318726 C7.43290267,21.6125439 8.07080103,22.4360421 8.33126615,23.3268395 C8.64478898,24.4085221 8.58087855,25.6504993 8.55314384,26.7652196 C8.53893766,27.3130818 8.51320685,27.8605738 8.47596899,28.4073215 C8.47114556,28.5101058 8.37588286,28.9090068 8.43496985,28.9848714 C8.46511628,29.0240274 8.74366925,29.0203565 8.79069767,29.025251 C9.63479759,29.1341534 10.4692506,29.3030134 11.2988803,29.4841095 C15.349354,30.374907 19.2068906,31.9484859 23.2465116,32.8527432 C25.6425495,33.38869 28.2098191,33.8316414 30.6770026,33.6627815 C30.0672109,32.5378082 29.5946563,31.3416871 29.2697674,30.1008154 C28.7072286,27.9591972 28.2619878,25.7876135 27.9360896,23.5960365 C27.6165375,21.4865108 27.4501292,19.2007834 28.2037898,17.164675 C28.5896641,16.1245956 29.2432386,15.2558234 29.8353144,14.3307646 C30.4671835,13.3469718 30.7360896,12.3913224 30.9881137,11.2643658 C31.4427218,9.22213928 32.7920758,7.21906873 34.7347115,6.37721623 C34.4537468,6.00401127 33.9846684,5.72991976 33.6132644,5.46194636 C33.0031008,5.02266577 32.3784668,4.60541039 31.7514212,4.18937863 C31.1581395,3.79781932 30.4925065,3.20436226 29.8208441,2.96208494 C29.3722653,2.7993431 28.8272179,2.76630529 28.3605512,2.67698082 C27.328493,2.4815816 26.2954621,2.29150973 25.2614987,2.10677259 C22.3940351,1.58803018 19.5157756,1.13273449 16.6287683,0.741209523 C14.1410853,0.408384116 11.6124031,0.0792295775 9.09457364,0.0792295775 L8.60258398,0.082900446" id="Path" fill="url(#linearGradient-12)" fill-rule="nonzero" mask="url(#mask-11)"></path>
                            </g>
                        </g>
                        <path d="M25.6926358,0.000412409846 C25.6926358,0.000412409846 20.6333297,-0.137044034 19.409963,4.60699618 C18.3259976,8.81674917 18.9689261,12.4683095 19.0073816,15.3931435 C19.0434337,18.3179776 15.9862188,23.0667989 15.9862188,23.0667989 C15.9862188,23.0667989 21.0647527,22.560003 21.5430434,20.9882184 C22.0201323,19.4152386 31.2482587,23.2544568 31.2482587,23.2544568 C31.2482587,23.2544568 28.1958507,21.2798651 31.0271394,15.7218437 C33.8572263,10.1650176 33.881261,7.72665981 33.9689877,5.92418749 C34.0242675,4.75401481 32.7840765,0.0374658859 25.6926358,0.000412409846" id="Path" fill="#FCCCA2" fill-rule="nonzero"></path>
                        <path d="M30.5348657,0.981134578 C30.5348657,0.981134578 35.643974,4.88688538 33.40183,12.6200192 C31.1608876,20.353153 29.688955,19.8880021 26.0517794,18.1500062 C22.410999,16.4094823 21.1613582,11.6922454 21.0147658,9.33362691 C20.8681733,6.97500847 20.794877,-3.15466368 30.5348657,0.981134578" id="Path" fill="#EEA987" fill-rule="nonzero"></path>
                        <path d="M14.988281,23.2173094 C17.7972871,25.2312048 39.3097816,27.1523706 37.9010753,25.876745 C36.6328793,24.7283254 30.3603533,22.0950443 28.7162621,21.1499163 C28.1121877,20.8003973 27.7519048,20.2535308 27.5393378,19.6995312 C27.1790549,18.7686693 27.2391021,17.8271078 27.2391021,17.8271078 L27.2391021,17.825919 C27.2006719,17.7355671 23.0970492,7.91812454 22.5362087,14.2712867 C22.0534296,19.7625397 20.1199111,20.7492771 20.1199111,20.7492771 C16.2804959,22.7857604 14.9870801,23.2173094 14.9870801,23.2173094" id="Path" fill="#EEA987" fill-rule="nonzero"></path>
                        <path d="M30.9018123,4.70122107 C30.9018123,4.70122107 29.9069247,4.57771375 29.0689326,8.0463072 C28.7040595,9.55956045 27.7578216,11.6487964 24.763429,13.740341 C21.5124089,16.010798 20.9687478,16.1770134 20.9687478,16.1770134 C20.9687478,16.1770134 16.8420321,1.85824415 25.4737155,1.07564636 C34.1053989,0.293048565 34.031208,6.85047931 33.9570171,8.43991465 C33.8840425,10.0281957 33.5799815,9.77656397 33.5799815,9.77656397 C33.5799815,9.77656397 33.4644383,4.89860193 30.9018123,4.70122107" id="Path" fill="#FCCCA2" fill-rule="nonzero"></path>
                        <path d="M15.6407289,50.9538884 C15.6407289,50.9538884 16.0447122,51.1820445 16.4486956,51.1167089 C17.144132,51.0036679 17.7990577,50.2289741 18.6531617,50.708102 C19.5050151,51.188267 18.49787,53.9437709 18.0072385,54.3254139 C17.5166069,54.7049827 16.1392376,54.8480989 14.5041741,53.6575386 C12.8691107,52.4690526 15.6407289,50.9538884 15.6407289,50.9538884" id="Path" fill="#EEA987" fill-rule="nonzero"></path>
                        <path d="M17.7807852,50.553167 C17.7807852,50.553167 19.2169539,50.7854812 20.7936056,51.2317085 C22.1757424,51.6192822 23.7080879,52.3334759 23.743749,52.6405446 C23.7826519,52.9855657 22.3021771,52.4599836 20.9049114,52.1655656 C19.6189514,51.8964491 18.4216039,51.7354393 18.4216039,51.7354393 C18.4216039,51.7354393 19.7724021,52.0862107 21.1156359,52.6554955 C22.5604497,53.2661829 23.9793282,54.0390301 23.9793282,54.4093528 C23.9782475,54.5899138 23.4314444,54.5220597 22.6739167,54.3437988 C23.2509778,54.5703626 23.6324432,54.7762252 23.5816532,54.9107834 C23.3244612,55.6042758 19.4471299,54.6117651 18.5491192,54.3852013 C19.2385667,54.5623121 21.3371668,55.1937007 20.9049114,55.5168705 C20.4099789,55.8871931 17.4749645,55.0142898 16.2895039,55.0280906 C15.1029628,55.0430415 17.7807852,50.5543171 17.7807852,50.5543171" id="Path" fill="#EEA987" fill-rule="nonzero"></path>
                        <path d="M22.9813581,15.1659501 C22.9813581,15.1659501 23.4698259,17.4827813 26.9767442,19.2102035 C26.6261692,18.3215559 26.6845984,17.4238404 26.6845984,17.4238404 C26.637855,17.4068383 23.6766651,16.3016961 22.9801895,15.1659501" id="Path" fill="#A87860" fill-rule="nonzero"></path>
                        <path d="M38.1881939,35.9147706 C38.1881939,35.9147706 44.1884315,41.0583916 48.2517628,41.0548205 C52.316286,41.0548205 62.43826,41.453597 62.43826,41.453597 L63.9448751,37.965791 C63.9448751,37.965791 50.3400457,36.2111746 49.4842311,35.9326262 C48.6272246,35.6528875 41.6007247,30.3319002 41.6007247,30.3319002 C41.6007247,30.3319002 36.9092398,31.0854092 38.1881939,35.9147706" id="Path" fill="#DD312F" fill-rule="nonzero"></path>
                    </g>
                    <g id="Group-2" transform="translate(727.001722, 321.000000)">
                        <path d="M37.7872872,118.434631 C37.7872872,118.434631 38.4913797,119.950008 39.0847396,120.551867 C39.6791441,121.151859 41.9512526,122.225873 41.9637884,124.011853 C41.9773688,125.947132 38.1320209,125.409658 36.628773,125.338741 C35.1244804,125.267825 35.0106138,124.234868 34.3765127,123.138459 C33.7445009,122.04205 33.1062212,122.22774 32.9871314,121.344081 C32.8680415,120.460422 33.4718479,118.48222 33.4718479,118.48222 L37.7872872,118.434631 L37.7872872,118.434631 Z" id="Path" fill="#163342" fill-rule="nonzero"></path>
                        <path d="M25.583961,1.32696539 C25.583961,1.32696539 32.3774594,-1.20004683 31.9533779,7.87619019 C31.5282721,16.9524272 29.9354057,17.8750853 25.4671849,16.6074602 C20.9979398,15.3398351 20.6220028,9.61132286 20.0411956,6.85570563 C19.459364,4.1000884 23.3621428,1.72342003 25.5829366,1.32593563" id="Path" fill="#FCC7AE" fill-rule="nonzero"></path>
                        <path d="M20.8961413,12.0441998 C20.8961413,12.0441998 20.8768456,9.66272684 21.8710787,9.44319429 C22.8663274,9.22366174 23.377154,10.6005456 23.377154,10.6005456 L24.1794462,10.5580555 C24.1794462,10.5580555 23.462461,8.14420905 24.4109939,7.59082515 C25.3595268,7.03744124 31.030413,7.5230432 31.743336,6.71067159 C32.4542279,5.89728831 31.4214035,1.07060715 29.8747059,0.597145241 C28.3269927,0.123683329 24.1002326,-0.837403884 21.4161079,1.54406906 C21.4161079,1.54406906 19.0813358,1.58858258 18.9889199,3.48243022 C18.8944728,5.37627787 20.0867401,10.7522962 20.8961413,12.0441998" id="Path" fill="#323657" fill-rule="nonzero"></path>
                        <path d="M23.5019108,7.54222189 C23.2529778,6.73510799 21.8477386,6.83586738 21.9913211,8.11561554 C22.1357532,9.39536371 23.2971571,11.3648463 23.7635877,10.9950489 C24.2300184,10.6262903 23.8451494,8.65473023 23.5019108,7.54222189" id="Path" fill="#FCC7AE" fill-rule="nonzero"></path>
                        <path d="M10.1723999,118.434631 C10.1723999,118.434631 9.46830883,119.950008 8.8749502,120.551867 C8.27950228,121.151859 6.00844301,122.225873 5.99486262,124.011853 C5.98232687,125.947132 9.82766688,125.409658 11.3309117,125.338741 C12.8352012,125.267825 12.9490676,124.234868 13.5821227,123.138459 C14.2162225,122.04205 14.8534563,122.22774 14.9715012,121.344081 C15.0905908,120.460422 14.4878304,118.48222 14.4878304,118.48222 L10.1723999,118.434631 L10.1723999,118.434631 Z" id="Path" fill="#163342" fill-rule="nonzero"></path>
                        <path d="M10.1260224,118.599241 L9.99138674,119.225357 C9.99138674,119.225357 12.3166365,119.686862 14.4829554,119.251095 L14.3574304,118.434631 L10.1260224,118.599241 Z M36.8365321,118.599241 L36.9681309,119.176871 C36.9681309,119.176871 34.6833731,119.675489 32.5170542,119.238525 L32.6051242,118.434631 L36.8365321,118.599241 L36.8365321,118.599241 Z" id="Shape" fill="#2F6B8C" fill-rule="nonzero"></path>
                        <path d="M37.0622025,92.5396076 C37.0622025,95.0802853 38.9664083,118.75817 38.9664083,118.75817 C38.7139005,119.603737 33.5409565,119.570948 32.6982737,119.147667 C31.8526201,118.724387 29.4612228,95.1856087 29.3057572,92.624065 C29.1493014,90.0625213 24.5794055,70.5319928 23.8397062,70.6164502 C23.0990167,70.7009077 20.6383035,91.8271845 20.0471382,93.7746731 C19.4569631,95.7231553 16.9903086,119.147667 16.9903086,119.147667 C14.5484097,119.641495 10.9905254,119.035389 10.9905254,119.035389 C10.9905254,119.035389 11.430186,94.8308876 11.5361403,94.1134963 C11.6945765,93.054301 11.5292087,90.1986468 11.9589671,83.8613599 C12.343175,78.1917834 13.7314727,65.8490776 14.610794,59.1650186 L14.7018948,58.4804167 C14.8741943,57.1787789 15.003914,56.2229197 15.065308,55.7638688 L15.1068975,55.4608158 C15.3445519,55.3515179 15.5921086,55.250169 15.8505577,55.1567691 C22.0325426,52.928087 33.9548713,55.2869329 33.9548713,55.2869329 L33.975666,55.4568413 L34.0479526,56.0748708 L34.3370988,58.559906 L34.3390792,58.5817656 L34.3499717,58.6751656 C34.7658669,62.299879 35.3530713,67.6077791 35.2986088,68.1602299 C35.2144396,69.0067913 37.0622025,89.9979363 37.0622025,92.5396076" id="Path" fill="#1D3B54" fill-rule="nonzero"></path>
                        <g id="Group" transform="translate(0.000000, 20.073666)">
                            <g id="Clipped">
                                <mask id="mask-14" fill="white">
                                    <use xlink:href="#path-13"></use>
                                </mask>
                                <g id="h"></g>
                                <path d="M9.42187769,31.7013375 C9.42187769,31.7013375 0.0199827735,20.0084269 1.35525272e-20,17.4711155 C-0.00999138674,16.296806 1.64857881,12.3864558 3.08234281,10.5487117 C3.55393626,9.94248693 4.05650301,9.33826957 4.55906977,8.75713693 L4.56106804,8.75613325 C6.56833764,6.43561742 8.56661499,4.50954914 8.56661499,4.50954914 C8.56661499,4.50954914 13.7171748,-1.64403327 17.3440482,1.70927269 C17.3440482,1.70927269 17.2371404,3.96354542 16.1470801,5.66980705 C15.2807024,7.00525358 14.2198021,8.20258817 12.9997933,9.22184231 C12.327373,9.76784603 6.2935745,16.1342093 6.19865633,16.4302959 C6.1047373,16.7263825 7.50552972,20.2994951 8.39576227,21.8461711 C9.66466839,24.0502596 12.2824117,29.1700482 12.2824117,29.1700482 L9.42187769,31.7013375 Z" id="Path" fill="#448FB4" fill-rule="nonzero" mask="url(#mask-14)"></path>
                            </g>
                        </g>
                        <path d="M38.1715655,52.1915324 C38.1715655,52.1915324 48.6961482,41.5059678 48.9502385,39.0020207 C49.0692173,37.844592 47.7624671,33.8319073 46.4920154,31.8862726 C46.0683181,31.2402744 45.6278841,30.6051213 45.1711491,29.9814416 L45.1691325,29.9794512 C44.020828,28.4124489 42.8088783,26.8918567 41.5362457,25.4213916 C41.5362457,25.4213916 36.9273295,18.8739082 32.9748133,21.8555559 C32.9748133,21.8555559 32.8729755,24.0917917 33.8116981,25.8762024 C34.5592828,27.2733129 35.5150318,28.5517943 36.6470235,29.6689458 C37.2721664,30.2700524 42.7492246,37.108137 42.8167803,37.4076951 C42.8853444,37.7082483 41.1480522,41.1098745 40.111525,42.5529283 C38.6323563,44.6159976 35.6417534,49.5492512 35.6417534,49.5492512 L38.1715655,52.1915324 L38.1715655,52.1915324 Z" id="Path" fill="#448FB4" fill-rule="nonzero"></path>
                        <path d="M28.8752899,19.0917 C28.8752899,19.0917 29.8454157,19.3055173 25.734272,23.0847163 C25.734272,23.0847163 22.8831252,19.9830454 22.9827403,19.4586211 C23.081458,18.9359565 28.8752899,19.0917 28.8752899,19.0917" id="Path" fill="#EEA987" fill-rule="nonzero"></path>
                        <path d="M38.9664083,22.763482 L35.6360984,34.4106895 C35.521934,34.7876672 35.3861709,35.2528738 35.2411512,35.7932753 L35.2349802,35.8133273 L35.2308661,35.8273637 C34.6754716,37.9027463 33.9863711,41.068958 33.7837549,44.5860798 C33.6438778,46.9812919 33.7703843,54.6070697 33.7703843,54.6070697 C33.7703843,54.6070697 29.1513536,56.2593549 21.6103307,55.795151 C21.6103307,55.795151 13.407977,57.8003516 14.0693079,52.9537818 C15.819829,40.1225033 14.1083912,34.8317816 13.8790338,33.5434403 C13.8790338,33.5434403 12.7785299,27.3122795 11.9896641,22.0907372 C14.2729525,21.2625894 24.0232112,18.0662997 24.0232112,18.0662997 L29.3118009,18.1234479 C29.3118009,18.1234479 36.7479159,20.2780359 38.9664083,22.763482" id="Path" fill="#448FB4" fill-rule="nonzero"></path>
                        <path d="M34.9698536,37.2734334 C34.9698536,37.2734334 32.0071447,35.8931117 30.9833814,31.228243 L20.5285867,31.1141828 C20.5285867,31.1141828 17.4000979,37.3140311 15.7122458,37.6455789 C15.7122458,37.6455789 16.0418665,44.4524594 15.8305214,47.080677 C15.6201458,49.7088946 14.9870801,54.683079 14.9870801,54.683079 C14.9870801,54.683079 15.5833059,59.2222882 34.0149229,56.1329968 C34.0149229,56.1329968 33.8152115,45.2093165 33.8442956,44.742443 C33.8733798,44.2755695 34.8932652,37.5479511 34.9688841,37.2734334" id="Path" fill="#385369" fill-rule="nonzero"></path>
                        <path d="M30.9594013,31.1692639 C30.9594013,31.1692639 32.2171347,24.4416397 34.9698536,20.5225855 C34.9698536,20.5225855 34.705799,20.195912 33.994043,20.0736663 C33.994043,20.0736663 31.0060575,24.4827307 29.8148341,31.1559093 C28.6226179,37.8290879 30.9594013,31.1692639 30.9594013,31.1692639 M20.3833224,31.0501 C20.3833224,31.0501 19.6556834,24.9737682 16.9853575,20.9930775 C16.9853575,20.9930775 17.4370297,20.6869495 18.1517638,20.5821675 C18.1517638,20.5821675 20.4766349,24.3645941 21.5268969,31.0634546 C22.5791443,37.7612878 20.3833224,31.0501 20.3833224,31.0501" id="Shape" fill="#385369" fill-rule="nonzero"></path>
                        <path d="M22.9811209,18.3358255 C22.9811209,18.3358255 24.03738,17.3235176 23.0444592,13.3230935 C22.7836545,12.2655933 28.8445699,14.5966131 28.8445699,14.5966131 C28.8445699,14.5966131 28.7961347,15.4724402 28.8017234,16.3491712 C28.8026548,16.7414405 28.8166265,17.1337098 28.8492271,17.4500561 C28.8743761,17.6868638 28.9107025,17.8802869 28.961932,17.9950754 C29.2339141,18.603364 25.2016868,19.8795951 22.9801895,18.3358255" id="Path" fill="#FCC7AE" fill-rule="nonzero"></path>
                        <path d="M38.9664083,22.5368947 C36.1978918,23.2967658 36.0771657,33.2216123 36.0771657,33.2216123 C36.0771657,33.2216123 35.3067692,35.6834394 34.9793763,37.895207 C34.8044257,39.0776594 34.6202672,44.0962976 34.4872638,48.5043252 L34.4729404,48.9802138 L34.4616862,49.3601493 C34.3593759,52.8202765 34.2949205,55.6988696 34.2949205,55.6988696 C34.2949205,55.6988696 31.6174602,57.328134 24.3135287,57.2031042 C24.3135287,57.2031042 16.6842504,56.7039542 13.4410142,55.5089019 C13.4410142,55.5089019 13.7991002,52.5595554 14.1305856,49.6140858 L14.2717738,48.3376187 C14.4457013,46.7529387 14.5940512,45.2991037 14.6544143,44.4675101 C14.8385728,41.9010069 13.846163,32.7806157 13.846163,32.7806157 C14.9981768,23.5584561 12.9888028,22.0832982 12.9888028,22.0832982 C14.3188365,21.2546123 22.3113163,19.2570431 22.3113163,19.2570431 C23.9206571,25.884592 25.9842557,27.199828 25.9842557,27.199828 C28.9686468,24.3900497 30.4347533,19.069983 30.4347533,19.069983 C35.4827429,20.0081912 38.9664083,22.5368947 38.9664083,22.5368947" id="Path" fill="#448FB4" fill-rule="nonzero"></path>
                        <path d="M35.9782191,50.1841658 C35.9782191,50.1841658 35.6469457,50.5085849 35.2564122,50.5409393 C34.5812362,50.5986527 33.7214797,49.982169 33.0987634,50.6721061 C32.4760471,51.3629176 34.3121373,53.8821934 34.8882227,54.1436524 C35.4643081,54.4059859 36.6057927,53.7335378 37.7113327,52.1376758 C38.8178442,50.5426882 35.9782191,50.1841658 35.9782191,50.1841658" id="Path" fill="#FCC7AE" fill-rule="nonzero"></path>
                        <path d="M32.8814492,50.3449217 C32.8814492,50.3449217 31.5572802,50.941751 30.1731006,51.7880291 C28.9591151,52.5299083 27.6674109,53.5785171 27.8828589,53.8880184 C28.1779932,54.3120813 29.089958,53.3641759 30.3472298,52.7100658 C31.5051398,52.1067693 31.3851186,52.4199661 31.3851186,52.4199661 C31.3851186,52.4199661 31.414632,52.3275776 30.2911543,53.2311366 C29.0840553,54.2012152 27.8002214,55.3893306 28.061907,55.6701914 C28.2261984,55.8457295 28.2291498,55.8826848 28.7269429,55.6027479 C28.4770625,55.8263279 28.506576,55.9261074 28.5951162,56.0406691 C29.0515905,56.6319551 31.0614547,55.4844907 31.8593009,55.0290156 C31.2493568,55.3837873 30.8420716,55.7089946 31.3556051,55.8993148 C31.9458736,56.1182754 34.7073463,54.3684383 35.7629431,53.8381286 C36.9119991,53.2579292 32.8804654,50.3449217 32.8804654,50.3449217 M11.0129859,50.1841658 C11.0129859,50.1841658 11.3484551,50.5278508 11.7468863,50.5629584 C12.4325815,50.6239348 13.3051951,49.9707485 13.9377662,50.7015411 C14.5703372,51.4332575 12.7060726,54.1014357 12.1197392,54.3804488 C11.5353735,54.6576141 10.3754959,53.9452992 9.25201823,52.2545908 C8.12854056,50.5638823 11.0129859,50.1841658 11.0129859,50.1841658" id="Shape" fill="#FCC7AE" fill-rule="nonzero"></path>
                        <path d="M14.4141092,50.1841658 C14.4141092,50.1841658 15.8815334,50.798346 17.4164004,51.6670939 C18.764168,52.4298508 20.1956953,53.505849 19.9563822,53.8247685 C19.6300462,54.2610351 18.6173168,53.2862962 17.2238621,52.6134424 C15.9402739,51.9945305 16.0708083,52.3172353 16.0708083,52.3172353 C16.0708083,52.3172353 16.0403502,52.2226005 17.285866,53.150022 C18.6238436,54.146527 20.0477563,55.3673165 19.7584051,55.6559528 C19.5767447,55.8367054 19.5734813,55.8745593 19.0208857,55.5868694 C19.2971835,55.8149394 19.2656377,55.9190377 19.1677369,56.0363849 C18.6608283,56.6429943 16.4319534,55.4657368 15.5475829,54.9982406 C16.2241862,55.3616385 16.6756177,55.6947531 16.1056174,55.8906473 C15.4529454,56.1158782 12.3886504,54.3187624 11.2192798,53.7727193 C9.94439379,53.1774661 14.4141092,50.1841658 14.4141092,50.1841658" id="Path" fill="#FCC7AE" fill-rule="nonzero"></path>
                        <path d="M12.3369318,49.8934096 C12.3369318,49.8934096 11.6375012,51.0348136 9.45052056,52.1654072 C9.45052056,52.1654072 5.01608983,47.3097105 2.99741602,44.4809744 L9.14212606,44.4809744 C9.14212606,44.4809744 11.8561992,48.9060545 12.3369318,49.8934096 M35.8565478,49.7988181 C35.8565478,49.7988181 36.2344822,51.1501251 38.3851811,52.1915324 C38.3851811,52.1915324 44.2880131,46.4619905 44.9612403,45.7457978 L39.7910972,44.1620659 C39.7910972,44.1620659 37.059891,47.8934751 35.8565478,49.7988181" id="Shape" fill="#448FB4" fill-rule="nonzero"></path>
                        <path d="M28.9750215,18.0662997 C25.2226792,18.017514 24.0161538,15.1440396 23.9793282,15.0552497 C25.9562854,17.0710726 28.9246285,16.8769057 28.9246285,16.8769057 C28.9265667,17.3023165 28.9401341,17.7257759 28.9750215,18.0662997" id="Path" fill="#E79B74" fill-rule="nonzero"></path>
                        <path d="M29.2660554,18.0672969 C29.2660554,18.0672969 28.5598643,18.9956915 26.6298002,19.8363324 L27.4967501,21.8087969 L29.9741602,18.8640609 L29.2660554,18.0662997 L29.2660554,18.0672969 Z M23.6193977,18.1002045 C23.6193977,18.1002045 24.3332439,19.2808911 26.6298002,19.8373296 L25.6116602,22.081033 L22.9801895,19.06749 L23.6193977,18.1002045 Z" id="Shape" fill="#786E6A" fill-rule="nonzero"></path>
                    </g>
                    <rect id="Rectangle" fill-opacity="0.5" fill="#FFFFFF" x="0.001721911" y="0" width="1158" height="543"></rect>
                    <g id="Question-Mark" transform="translate(392.001722, 283.000000)">
                        <path d="M40.9646856,102.375698 C71.3141835,102.375698 109.905254,79.4581176 109.905254,51.1878491 C109.905254,22.9175807 85.3021249,7.10542736e-15 54.952627,7.10542736e-15 C24.6031292,7.10542736e-15 0,22.9175807 0,51.1878491 C0,64.8863168 13.1972278,80.583057 21.1882341,93.3425484 C23.0337323,96.2893134 23.0337323,100.973169 21.1882341,107.394115 C27.3398114,104.048504 33.9319619,102.375698 40.9646856,102.375698 Z" id="Oval" fill="#FFFFFF"></path>
                        <path d="M53.0342808,32.3587501 C47.6788975,32.3587501 45.0411714,34.6070007 43.2826873,36.3734834 L39.1262705,31.3952141 C41.3643411,29.3075528 45.2010336,26.6578289 53.2740741,26.6578289 C62.0664944,26.6578289 67.7416021,31.0740355 67.7416021,39.2640913 C67.7416021,46.7314952 64.0647717,50.7462285 59.2689061,55.2427297 L49.837037,63.9145536 C48.2384152,63.3524909 46.9595177,62.2283656 46.9595177,60.220999 C46.9595177,54.1988991 61.2671835,49.7826925 61.2671835,40.1473326 C61.2671835,35.2493581 58.2298019,32.3587501 53.0342808,32.3587501 Z M48.3183463,79.5720133 C48.3183463,76.7617 50.4764858,74.5937441 53.1142119,74.5937441 C55.9118002,74.5937441 57.9900086,76.6814053 57.9900086,79.5720133 C57.9900086,82.2217373 55.9118002,84.3093985 53.1142119,84.3093985 C50.3965547,84.3093985 48.3183463,82.2217373 48.3183463,79.5720133 Z" id="?" fill="#BF0000" fill-rule="nonzero"></path>
                    </g>
                    <g id="Person-Big" transform="translate(288.001722, 363.000000)">
                        <g id="Group-10" transform="translate(77.849555, 22.096567)">
                            <path d="M65.6974575,158.710394 C74.0533334,150.777634 86.4718293,142.055434 102.952945,132.543795 C88.4179451,114.911607 72.3322892,89.0314861 54.6959776,54.9034331 L4.09035921,33.9208668 C-5.23001927,9.14925994 1.42739393,-1.69940759 24.0625988,1.37486422 C46.6978037,4.44913603 58.0154061,10.4268868 58.0154061,19.3081165 C103.41816,68.4810764 136.705226,109.471367 157.876604,142.278989 C155.497421,150.265192 150.387014,159.703127 120.927961,159.703127 C101.288592,159.703127 82.8784241,159.372216 65.6974575,158.710394 Z" id="Path-23" fill="#FCC7AE"></path>
                            <path d="M99.3943645,137.223876 C116.734807,143.274731 120.377425,138.612392 120.916612,138.391896 C121.776164,140.8204 121.776164,140.8204 121.776164,140.8204 C115.626411,144.593706 99.7486448,138.086754 99.3943645,137.223876 Z" id="Path" fill="#E79B74" transform="translate(110.585264, 139.605787) scale(1, -1) rotate(-218.000000) translate(-110.585264, -139.605787) "></path>
                        </g>
                        <g id="Group-9" filter="url(#filter-15)" fill-rule="nonzero">
                            <path d="M64.532397,12.2416143 C64.532397,12.2416143 130.769007,-12.5966075 126.634212,76.6145118 C122.48943,165.825631 106.958983,174.894517 63.3938305,162.43492 C19.8186906,149.975323 16.1533052,93.6692811 10.4904347,66.5840808 C4.81757666,39.4988805 42.8696699,16.1384013 64.5224096,12.2314928" id="Path" fill="#FCC7AE"></path>
                            <path d="M28.9145656,93.5311794 C38.5608217,91.3598039 43.5119103,104.978431 43.5119103,104.978431 L51.287974,104.558165 C51.287974,104.558165 48.8872271,81.4285411 53.532205,75.2095727 C58.1771829,68.9906043 117.689651,74.539148 124.599521,66.5040577 C131.489704,58.4589612 121.479252,10.7187177 106.488183,6.03575106 C91.48727,1.3527844 50.5202107,-8.15323766 24.5048485,15.4016844 C24.5048485,15.4016844 1.875519,15.8419633 0.979795217,34.5738299 C0.0643851948,53.3056966 11.6202063,106.479382 19.4651718,119.257477 C19.4651718,119.257477 19.2781525,95.702555 28.9145656,93.5311794 Z" id="Path" fill="#323657"></path>
                            <path d="M45.112192,73.7361089 C42.6228625,65.7530222 28.57047,66.7496238 30.0062949,79.4074909 C31.4506157,92.0653581 43.0646547,111.545322 47.7289615,107.887692 C52.3932683,104.240336 48.544578,84.7398229 45.112192,73.7361089" id="Path" fill="#FCC7AE"></path>
                            <path d="M39.903983,180.550504 C39.903983,180.550504 50.1144877,170.527163 40.5162531,130.917068 C37.9951408,120.446257 96.5839895,143.526789 96.5839895,143.526789 C96.5839895,143.526789 96.1157829,152.198769 96.1698067,160.879698 C96.1788107,164.763742 96.3138703,168.647787 96.6290093,171.780081 C96.8721166,174.124827 97.1363402,179.511374 97.8450221,180.550504 C97.8442963,181.014114 61.9760534,180.745277 39.894979,180.550504" id="Path" fill="#FCC7AE"></path>
                            <path d="M97.8450221,178.821493 C61.0720672,178.338959 49.2481187,149.917697 48.8872271,149.039485 C68.2614078,168.977797 97.3511704,167.057311 97.3511704,167.057311 C97.3701647,171.265008 97.5031248,175.453405 97.8450221,178.821493" id="Path" fill="#E79B74"></path>
                        </g>
                    </g>
                </g>
            </g>
        </g>
    </g>
</svg>