<?xml version="1.0" encoding="UTF-8"?>
<svg width="1161px" height="542px" viewBox="0 0 1161 542" version="1.1" xmlns="http://www.w3.org/2000/svg" xmlns:xlink="http://www.w3.org/1999/xlink">
    <!-- Generator: Sketch 54.1 (76490) - https://sketchapp.com -->
    <title>Image_Raffle</title>
    <desc>Created with Sketch.</desc>
    <defs>
        <linearGradient x1="64.2336911%" y1="49.4545408%" x2="70.480633%" y2="38.7101898%" id="linearGradient-1">
            <stop stop-color="#3463AC" offset="0%"></stop>
            <stop stop-color="#20BAC9" offset="100%"></stop>
        </linearGradient>
        <path d="M0.56442252,3.16983333 C4.77515621,10.724 9.23503876,13.0165 9.23503876,13.0165 L12.2614298,10.7006667 C7.23122073,7.5775 3.77738,0.711666667 3.77738,0.711666667 L0.56678412,3.16983333 L0.56442252,3.16983333 Z" id="path-2"></path>
        <path d="M0.504689922,1.46183333 C1.32410853,10.073 4.48825581,13.9685 4.48825581,13.9685 L8.19081395,13.0655 C4.83782946,8.18066667 4.43317829,0.505166667 4.43317829,0.505166667 L0.504689922,1.46183333 Z" id="path-4"></path>
        <path d="M3.56109676,0.5604 L0.276261843,1.3596 C0.961670973,8.5596 3.60655757,11.8164 3.60655757,11.8164 L6.70255527,11.0616 C3.89913867,6.978 3.56109676,0.5604 3.56109676,0.5604 Z" id="path-6"></path>
        <path d="M0.121006795,10.4953333 L4.32849076,13.3886667 C4.60824959,8.00216667 9.72828022,3.91533333 9.72828022,3.91533333 L5.2632405,0.8435 C-0.127667719,5.75866667 0.122116949,10.4953333 0.122116949,10.4953333" id="path-8"></path>
        <path d="M0.810729667,0.636 C-0.517268365,7.812 2.53838317,11.436 2.53838317,11.436 L7.63798696,11.1996 C4.61316599,6.7368 6.22434847,0.384 6.22434847,0.384 L0.811871539,0.636 L0.810729667,0.636 Z" id="path-10"></path>
        <polygon id="path-12" points="0.512891186 7.24111111 4.19638243 9.41888889 9.17542349 2.44777778 5.49082209 0.27"></polygon>
        <linearGradient x1="-1.5291184%" y1="56.564%" x2="101.532113%" y2="43.429%" id="linearGradient-14">
            <stop stop-color="#9A1712" offset="0%"></stop>
            <stop stop-color="#ED1C23" offset="100%"></stop>
        </linearGradient>
        <polygon id="path-15" points="0.710244863 1.512 3.33426849 11.6256 7.58660268 10.5204 4.9648628 0.4068"></polygon>
        <linearGradient x1="18.1058073%" y1="87.099%" x2="81.9095856%" y2="12.895%" id="linearGradient-17">
            <stop stop-color="#9A1712" offset="0%"></stop>
            <stop stop-color="#ED1C23" offset="100%"></stop>
        </linearGradient>
        <polygon id="path-18" points="0.916085271 10.128 5.02666667 11.6796 8.71348837 1.908 4.60178295 0.354"></polygon>
        <linearGradient x1="0.739655737%" y1="67.669%" x2="99.2550799%" y2="32.331%" id="linearGradient-20">
            <stop stop-color="#9A1712" offset="0%"></stop>
            <stop stop-color="#ED1C23" offset="100%"></stop>
        </linearGradient>
        <polygon id="path-21" points="0.747133697 2.6736 5.86716432 11.4684 9.23093119 9.096 4.10979041 0.3"></polygon>
        <linearGradient x1="40.7310085%" y1="92.171%" x2="59.2672798%" y2="7.836%" id="linearGradient-23">
            <stop stop-color="#9A1712" offset="0%"></stop>
            <stop stop-color="#ED1C23" offset="100%"></stop>
        </linearGradient>
        <polygon id="path-24" points="0.528294574 10.2853636 4.56806202 12.0179091 8.68089147 2.41445455 4.64449612 0.683090909"></polygon>
        <linearGradient x1="99.5058922%" y1="34.069%" x2="0.494107846%" y2="65.939%" id="linearGradient-26">
            <stop stop-color="#9A1712" offset="0%"></stop>
            <stop stop-color="#ED1C23" offset="100%"></stop>
        </linearGradient>
        <path d="M1.47472868,4.7825 C1.00713178,3.37375 0.804306632,1.82875 0.785322997,0.2675 C0.39166236,1.36125 0.752351421,2.9975 1.47472868,4.7825" id="path-27"></path>
        <path d="M1.397795,2.786 C1.0628679,2.13103617 0.755202305,1.46246262 0.475590009,0.782 C0.710387597,1.49 1.01712317,2.161 1.397795,2.786" id="path-29"></path>
        <path d="M0.402852713,8.14930435 C0.402852713,8.14930435 -1.37881137,12.5831739 4.69874935,19.1488696 C4.69874935,19.1488696 8.61577261,24.906913 8.30404134,26.1336522 C9.8938708,25.5032609 11.279876,22.9464783 11.279876,22.9464783 C11.279876,22.9464783 12.0076486,20.8064348 10.2691473,18.5478261 C10.2691473,18.5478261 7.36764858,14.6786087 5.39414987,10.785913 C5.01128731,10.153796 4.70202032,9.48164066 4.4721447,8.78204348 C3.74916796,6.99769565 3.38947804,5.36126087 3.78273902,4.26834783 C3.75875969,2.88313043 3.87865633,1.48617391 4.07049096,0.157304348 L0.40045478,8.14930435 L0.402852713,8.14930435 Z" id="path-31"></path>
        <path d="M12.5172093,3.75777778 C12.5172093,3.75777778 10.4070284,5.19222222 6.66282761,4.08 C6.66282761,4.08 5.76874123,3.80333333 4.55493048,3.91888889 C4.55493048,3.91888889 1.47872524,5.35 0.855262705,8.81888889 C0.855262705,8.81888889 4.30486034,9.45888889 8.3322456,9.56666667 C9.68422296,9.6 11.2554399,8.91111111 12.842643,6.07111111 L15.3170813,0.86 C15.3170813,0.86 14.0153464,3.18444444 12.5172093,3.75777778" id="path-33"></path>
        <path d="M1.98685862,18.1355 C2.90082568,17.4059732 3.70050035,16.5334846 4.35738649,15.549125 C4.43389197,15.143 4.45672942,14.774875 4.41790575,14.475625 C4.41790575,14.475625 1.87381322,6.821 3.90520487,5.7 C4.56749108,1.88575 7.83781469,0.3123125 7.83781469,0.3123125 C2.27917805,0.6566875 -2.16270703,11.2135625 1.98571675,18.1366875" id="path-35"></path>
        <path d="M10.9782027,3.13536364 C10.3802182,3.61045455 1.58996268,5.785 0.939523399,7.97136364 C0.939523399,7.97136364 0.751851852,9.66372727 0.43712317,12.0072727 C0.63295435,11.6231818 0.906884869,11.2946364 1.28805627,11.05 C1.28805627,11.05 6.34353144,10.673 9.53394775,9.03381818 C11.5913408,7.982 12.81412,3.58681818 13.3491588,0.548363636 C12.6952593,1.5295843 11.8954686,2.40225267 10.9782027,3.13536364" id="path-37"></path>
        <path d="M2.67968992,2.345 C1.87937984,1.851 1.15300603,1.181 0.508561585,0.43 C0.761343669,1.123 1.60261843,1.772 2.67968992,2.345" id="path-39"></path>
        <path d="M2.26105082,0.925 C1.68852789,0.682197507 1.12620546,0.415973356 0.575503876,0.127 C1.11204134,0.457 1.67555556,0.727 2.26105082,0.925" id="path-41"></path>
        <path d="M2.44589147,7.93028571 C2.44589147,7.93028571 3.62693999,11.7702857 10.7143635,12.7268571 C10.7143635,12.7268571 16.0647511,14.3291429 16.5007086,15.2948571 C17.151814,14.0205714 16.6909446,11.6114286 16.6909446,11.6114286 C16.6909446,11.6114286 16.0387069,9.82742857 13.8170221,9.30742857 C13.8170221,9.30742857 10.0575963,8.376 6.85302555,6.92457143 C6.2938915,6.72173372 5.7599934,6.45403519 5.26206374,6.12685714 C3.9043675,5.36342857 2.84561355,4.49714286 2.52742119,3.57371429 C1.80972427,2.68777577 1.16335393,1.74534495 0.594487511,0.755428571 L2.44475912,7.93028571 L2.44589147,7.93028571 Z" id="path-43"></path>
        <path d="M6.48003876,4.29461538 C6.48003876,4.29461538 5.88430233,6.53538462 2.63922481,7.905 C2.63922481,7.905 1.85802326,8.22461538 1.09255814,9.00692308 C1.09255814,9.00692308 -0.173100775,11.8073077 1.46910853,14.64 C1.46910853,14.64 4.22748062,13.1042308 7.06678295,10.8542308 C8.01658915,10.0984615 8.68763566,8.70115385 8.0874031,5.75653846 L6.68236434,0.611538462 C6.68236434,0.611538462 7.1701938,3.02307692 6.48003876,4.29576923" id="path-45"></path>
        <path d="M7.97162791,14.745 C8.19081395,13.68 8.19643411,12.6646154 8.10313953,11.7807692 C7.96202302,11.5096069 7.77948941,11.2634089 7.56248062,11.0515385 C7.56248062,11.0515385 1.7579845,7.47 2.46837209,5.64 C0.827286822,2.80730769 2.09069767,0.00692307692 2.09069767,0.00692307692 C-1.32635659,3.25384615 1.52418605,12.5134615 7.97162791,14.7461538" id="path-47"></path>
        <path d="M3.97490669,3.74514286 C3.84318691,4.37942857 -0.676083836,10.568 0.0885902957,12.3371429 C0.0885902957,12.3371429 0.884737295,13.5371429 1.95364915,15.2274286 C1.86572193,14.8703485 1.87658673,14.4967311 1.98512202,14.1451429 C1.98512202,14.1451429 5.06013781,11.152 6.23745622,8.35428571 C7.00096469,6.552 5.40983635,3.03885714 4.10662647,0.779428571 C4.21546074,1.76847704 4.17105164,2.76797715 3.97490669,3.744" id="path-49"></path>
        <path d="M0,4.396 C3.21722653,6.59166667 5.82830893,6.9895 7.25152646,7 L7.38030434,7 C8.05416786,6.99533333 8.42717963,6.90433333 8.42717963,6.90433333 L9.64390851,3.33316667 C5.53189779,3.8815 1.29443966,0.606666667 1.29443966,0.606666667 L0,4.396 Z" id="path-51"></path>
        <path d="M0.866852713,3.33316667 L2.20609819,6.90316667 C2.20609819,6.90316667 2.61734367,6.99533333 3.35950388,7 L3.49858398,7 C5.06443411,6.98833333 7.93715762,6.59166667 11.4765065,4.396 L10.0533333,0.606666667 C10.0533333,0.606666667 5.39175194,3.8815 0.866852713,3.33316667" id="path-53"></path>
        <polygon id="path-55" points="2.26704565 57.96056 2.85653747 0.08468 0.201826012 0.01508"></polygon>
        <path d="M0.56442252,3.16983333 C4.77515621,10.724 9.23503876,13.0165 9.23503876,13.0165 L12.2614298,10.7006667 C7.23122073,7.5775 3.77738,0.711666667 3.77738,0.711666667 L0.56678412,3.16983333 L0.56442252,3.16983333 Z" id="path-57"></path>
        <path d="M0.504689922,1.46183333 C1.32410853,10.073 4.48825581,13.9685 4.48825581,13.9685 L8.19081395,13.0655 C4.83782946,8.18066667 4.43317829,0.505166667 4.43317829,0.505166667 L0.504689922,1.46183333 Z" id="path-59"></path>
        <path d="M3.56109676,0.5604 L0.276261843,1.3596 C0.961670973,8.5596 3.60655757,11.8164 3.60655757,11.8164 L6.70255527,11.0616 C3.89913867,6.978 3.56109676,0.5604 3.56109676,0.5604 Z" id="path-61"></path>
        <path d="M0.121006795,10.4953333 L4.32849076,13.3886667 C4.60824959,8.00216667 9.72828022,3.91533333 9.72828022,3.91533333 L5.2632405,0.8435 C-0.127667719,5.75866667 0.122116949,10.4953333 0.122116949,10.4953333" id="path-63"></path>
        <path d="M0.810729667,0.636 C-0.517268365,7.812 2.53838317,11.436 2.53838317,11.436 L7.63798696,11.1996 C4.61316599,6.7368 6.22434847,0.384 6.22434847,0.384 L0.811871539,0.636 L0.810729667,0.636 Z" id="path-65"></path>
        <polygon id="path-67" points="0.512891186 7.24111111 4.19638243 9.41888889 9.17542349 2.44777778 5.49082209 0.27"></polygon>
        <polygon id="path-69" points="0.710244863 1.512 3.33426849 11.6256 7.58660268 10.5204 4.9648628 0.4068"></polygon>
        <polygon id="path-71" points="0.916085271 10.128 5.02666667 11.6796 8.71348837 1.908 4.60178295 0.354"></polygon>
        <polygon id="path-73" points="0.747133697 2.6736 5.86716432 11.4684 9.23093119 9.096 4.10979041 0.3"></polygon>
        <polygon id="path-75" points="0.528294574 10.2853636 4.56806202 12.0179091 8.68089147 2.41445455 4.64449612 0.683090909"></polygon>
        <path d="M1.47472868,4.7825 C1.00713178,3.37375 0.804306632,1.82875 0.785322997,0.2675 C0.39166236,1.36125 0.752351421,2.9975 1.47472868,4.7825" id="path-77"></path>
        <path d="M1.397795,2.786 C1.0628679,2.13103617 0.755202305,1.46246262 0.475590009,0.782 C0.710387597,1.49 1.01712317,2.161 1.397795,2.786" id="path-79"></path>
        <path d="M2.67968992,2.345 C1.87937984,1.851 1.15300603,1.181 0.508561585,0.43 C0.761343669,1.123 1.60261843,1.772 2.67968992,2.345" id="path-81"></path>
        <path d="M2.26105082,0.925 C1.68852789,0.682197507 1.12620546,0.415973356 0.575503876,0.127 C1.11204134,0.457 1.67555556,0.727 2.26105082,0.925" id="path-83"></path>
        <path d="M2.44589147,7.93028571 C2.44589147,7.93028571 3.62693999,11.7702857 10.7143635,12.7268571 C10.7143635,12.7268571 16.0647511,14.3291429 16.5007086,15.2948571 C17.151814,14.0205714 16.6909446,11.6114286 16.6909446,11.6114286 C16.6909446,11.6114286 16.0387069,9.82742857 13.8170221,9.30742857 C13.8170221,9.30742857 10.0575963,8.376 6.85302555,6.92457143 C6.2938915,6.72173372 5.7599934,6.45403519 5.26206374,6.12685714 C3.9043675,5.36342857 2.84561355,4.49714286 2.52742119,3.57371429 C1.80972427,2.68777577 1.16335393,1.74534495 0.594487511,0.755428571 L2.44475912,7.93028571 L2.44589147,7.93028571 Z" id="path-85"></path>
        <path d="M6.48003876,4.29461538 C6.48003876,4.29461538 5.88430233,6.53538462 2.63922481,7.905 C2.63922481,7.905 1.85802326,8.22461538 1.09255814,9.00692308 C1.09255814,9.00692308 -0.173100775,11.8073077 1.46910853,14.64 C1.46910853,14.64 4.22748062,13.1042308 7.06678295,10.8542308 C8.01658915,10.0984615 8.68763566,8.70115385 8.0874031,5.75653846 L6.68236434,0.611538462 C6.68236434,0.611538462 7.1701938,3.02307692 6.48003876,4.29576923" id="path-87"></path>
        <path d="M7.97162791,14.745 C8.19081395,13.68 8.19643411,12.6646154 8.10313953,11.7807692 C7.96202302,11.5096069 7.77948941,11.2634089 7.56248062,11.0515385 C7.56248062,11.0515385 1.7579845,7.47 2.46837209,5.64 C0.827286822,2.80730769 2.09069767,0.00692307692 2.09069767,0.00692307692 C-1.32635659,3.25384615 1.52418605,12.5134615 7.97162791,14.7461538" id="path-89"></path>
        <path d="M3.97490669,3.74514286 C3.84318691,4.37942857 -0.676083836,10.568 0.0885902957,12.3371429 C0.0885902957,12.3371429 0.884737295,13.5371429 1.95364915,15.2274286 C1.86572193,14.8703485 1.87658673,14.4967311 1.98512202,14.1451429 C1.98512202,14.1451429 5.06013781,11.152 6.23745622,8.35428571 C7.00096469,6.552 5.40983635,3.03885714 4.10662647,0.779428571 C4.21546074,1.76847704 4.17105164,2.76797715 3.97490669,3.744" id="path-91"></path>
        <path d="M0,4.396 C3.21722653,6.59166667 5.82830893,6.9895 7.25152646,7 L7.38030434,7 C8.05416786,6.99533333 8.42717963,6.90433333 8.42717963,6.90433333 L9.64390851,3.33316667 C5.53189779,3.8815 1.29443966,0.606666667 1.29443966,0.606666667 L0,4.396 Z" id="path-93"></path>
        <path d="M54.2659935,218.40382 C51.8814211,221.958279 45.5539539,222.149953 45.2852343,227.006096 C45.1633146,229.189502 46.6465682,230.577571 48.3007935,231.328464 C49.3967506,231.825945 50.626032,232.04003 51.9294526,231.993877 C53.0354074,231.954717 54.1947391,231.728196 55.3712924,231.328464 C60.0299356,229.74776 57.7296673,227.414803 64.6148874,222.161866 C71.3112559,219.46623 68.9607729,215.717404 68.523144,214.123634 C67.8907288,210.057459 61.7374025,213.206788 59.3000908,212.529864 C59.3013465,212.529864 56.6480545,214.844508 54.2659935,218.40382 Z" id="path-95"></path>
        <filter x="-37.5%" y="-35.0%" width="158.3%" height="170.0%" filterUnits="objectBoundingBox" id="filter-96">
            <feOffset dx="-2" dy="0" in="SourceAlpha" result="shadowOffsetOuter1"></feOffset>
            <feGaussianBlur stdDeviation="2" in="shadowOffsetOuter1" result="shadowBlurOuter1"></feGaussianBlur>
            <feColorMatrix values="0 0 0 0 0.333333333   0 0 0 0 0.333333333   0 0 0 0 0.333333333  0 0 0 1 0" type="matrix" in="shadowBlurOuter1"></feColorMatrix>
        </filter>
        <polygon id="path-97" points="0.327135116 0.112662371 35.3796628 0.112662371 35.3796628 30.1237363 0.327135116 30.1237363"></polygon>
        <linearGradient x1="95.5135706%" y1="35.7612054%" x2="44.5994223%" y2="54.7405422%" id="linearGradient-99">
            <stop stop-color="#D9140B" offset="0%"></stop>
            <stop stop-color="#F89A97" offset="100%"></stop>
        </linearGradient>
        <linearGradient x1="86.2996307%" y1="41.0871115%" x2="13.0964836%" y2="58.6563811%" id="linearGradient-100">
            <stop stop-color="#F90D02" offset="0%"></stop>
            <stop stop-color="#FD8B27" offset="45.1874038%"></stop>
            <stop stop-color="#FDA15E" offset="100%"></stop>
        </linearGradient>
        <linearGradient x1="95.5135706%" y1="30.4350609%" x2="44.5994223%" y2="56.513783%" id="linearGradient-101">
            <stop stop-color="#0C4FD2" offset="0%"></stop>
            <stop stop-color="#7ED2EF" offset="100%"></stop>
        </linearGradient>
        <linearGradient x1="95.5135706%" y1="28.9371215%" x2="44.5994223%" y2="57.0124941%" id="linearGradient-102">
            <stop stop-color="#16069B" offset="0%"></stop>
            <stop stop-color="#E6EFFD" offset="100%"></stop>
        </linearGradient>
        <path d="M5.32331274,16.2872032 C4.38302007,13.9345222 4.56419114,4.66276991 12.9322965,7.54413967 C19.7614522,9.89560654 34.9116305,18.311626 28.1865673,15.4365529 C27.3187301,15.1083852 26.6978234,14.6713208 26.4696536,14.8284933 C26.2414837,14.9856658 27.2453477,15.1235557 28.1100034,16.1635 C28.3622984,16.5515393 26.0392102,15.0069666 25.9338692,15.4235421 C27.3655575,15.9393986 27.8763799,16.846349 27.8466023,17.1457747 C21.3126552,13.8140931 13.804892,13.5279026 5.32331274,16.2872032 Z" id="path-103"></path>
        <filter x="-20.1%" y="-78.8%" width="180.2%" height="297.0%" filterUnits="objectBoundingBox" id="filter-104">
            <feOffset dx="5" dy="2" in="SourceAlpha" result="shadowOffsetOuter1"></feOffset>
            <feGaussianBlur stdDeviation="2.5" in="shadowOffsetOuter1" result="shadowBlurOuter1"></feGaussianBlur>
            <feColorMatrix values="0 0 0 0 0.618857563   0 0 0 0 0.618857563   0 0 0 0 0.618857563  0 0 0 0.5 0" type="matrix" in="shadowBlurOuter1"></feColorMatrix>
        </filter>
        <path d="M-3.44918439,16.5462932 C-4.19232698,14.1936122 -4.41377149,10.775626 5.10474137,12.6523852 C11.0878874,13.5056623 15.5555603,12.2827351 18.5077601,8.98360366 C18.5467214,10.7556635 18.0490668,12.2596695 17.0147962,13.4956214 C18.0042596,13.1017059 18.6443671,12.3085467 18.9351186,11.1161438 C19.1125834,13.4998183 18.5450732,15.0835825 17.2325881,15.8674361 C18.2026823,15.5917304 18.8694633,14.7207469 19.2329312,13.2544855 C18.8781216,16.1607297 17.9299433,17.8544035 16.3883961,18.3355071 C17.3035735,18.0552826 18.6521942,17.0066083 18.6391863,17.1721072 C17.5091404,18.8183144 15.3381426,20.2028496 12.126193,21.3257129 C8.46360159,22.6061158 4.98725606,24.1220293 0.833298868,22.5097095 C-2.11926732,21.3636985 -3.24571136,18.1379041 -3.44918439,16.5462932 Z" id="path-105"></path>
        <filter x="-13.0%" y="-7.0%" width="117.4%" height="128.1%" filterUnits="objectBoundingBox" id="filter-106">
            <feOffset dx="-1" dy="1" in="SourceAlpha" result="shadowOffsetOuter1"></feOffset>
            <feGaussianBlur stdDeviation="0.5" in="shadowOffsetOuter1" result="shadowBlurOuter1"></feGaussianBlur>
            <feColorMatrix values="0 0 0 0 0.761916893   0 0 0 0 0.761916893   0 0 0 0 0.761916893  0 0 0 0.367679196 0" type="matrix" in="shadowBlurOuter1"></feColorMatrix>
        </filter>
        <path d="M-4.59405263,15.1121689 C-5.46643741,12.7594879 -5.726394,9.34150169 5.4475124,11.2182609 C12.4712055,12.071538 17.715865,10.8486108 21.1814909,7.54947936 C21.2272281,9.32153923 20.6430248,10.8255452 19.4288811,12.0614971 C20.5904251,11.6675816 21.3418557,10.8744224 21.6831727,9.68201946 C21.9326363,11.2635815 21.2869964,12.4462893 19.746253,13.2301429 C20.8850592,12.9544372 21.6472345,12.48451 22.0327787,11.8203612 C20.6345343,14.2032869 19.6124651,15.579572 18.9665712,15.9492165 C20.0409098,15.668992 20.8589779,14.9219023 21.5282211,14.6050427 C19.5226665,17.152067 16.6346145,18.9870108 12.8640649,20.1098741 C8.56450111,21.3902769 3.45780198,22.054136 -0.0661114232,19.71781 C-2.19854683,18.3040226 -3.0428288,17.1742351 -4.59405263,15.1121689 Z" id="path-107"></path>
        <filter x="-11.1%" y="-7.3%" width="114.8%" height="129.1%" filterUnits="objectBoundingBox" id="filter-108">
            <feOffset dx="-1" dy="1" in="SourceAlpha" result="shadowOffsetOuter1"></feOffset>
            <feGaussianBlur stdDeviation="0.5" in="shadowOffsetOuter1" result="shadowBlurOuter1"></feGaussianBlur>
            <feColorMatrix values="0 0 0 0 0.761916893   0 0 0 0 0.761916893   0 0 0 0 0.761916893  0 0 0 0.367679196 0" type="matrix" in="shadowBlurOuter1"></feColorMatrix>
        </filter>
    </defs>
    <g id="PC-EP-Game-Start-Image" stroke="none" stroke-width="1" fill="none" fill-rule="evenodd">
        <g id="Game_DefaultImage_Raffles" transform="translate(-140.000000, -146.000000)">
            <g id="Image_Raffle" transform="translate(140.000000, 146.000000)">
                <rect id="Rectangle" fill="url(#linearGradient-1)" x="0.999138674" y="1" width="1159.00086" height="540"></rect>
                <rect id="Ground" fill="#CACACA" x="0" y="420" width="1159.00086" height="122"></rect>
                <g id="Box-Three" transform="translate(947.183463, 335.000000)">
                    <g id="Box" transform="translate(0.000000, 56.361662)">
                        <polygon id="Path-11" fill="#FFFFFF" points="0.525553616 23.6383378 69.4661221 23.6383378 69.4661221 66.6383378 0.525553616 66.6383378"></polygon>
                        <polyline id="Path-12" fill="#CCCCCC" points="69.4661221 23.30063 92.4463116 0.638337775 92.4463116 44.9694839 69.4661221 66.6383378"></polyline>
                        <polygon id="Path-14" stroke="#855028" fill="#C67245" stroke-linejoin="round" points="0.525553616 23.8725819 0.525553616 34.0150298 69.5979882 34.6383378 92.4463116 12.7554598 92.4463116 1.63833778 28.1170179 1.63833778"></polygon>
                        <polygon id="Path-13" fill="#F99D73" points="2.52383096 23.6383378 69.4263023 23.6383378 90.4480342 2.63833778 28.3747906 2.63833778"></polygon>
                    </g>
                    <g id="Box-Copy" transform="translate(20.508327, 15.000000)">
                        <polygon id="Path-11" fill="#FFFFFF" points="1.12249285 31 48.957795 32 48.957795 64 1.12249285 64"></polygon>
                        <polyline id="Path-12" fill="#CCCCCC" points="48.957795 21.9755561 70.9388458 0 70.9388458 42.987778 48.957795 64"></polyline>
                        <polygon id="Path-14" stroke="#B3973D" fill="#C6A445" stroke-linejoin="round" points="0.499569337 25 0.499569337 35 49.8347152 35 71.4124309 10.0311598 71.4124309 1.05166221 27.4763135 1.05166221"></polygon>
                        <polygon id="Path-13" fill="#F9E573" points="0.499569337 25 49.9569337 25 71.4124309 1.05166221 27.4763135 1"></polygon>
                    </g>
                    <g id="Box-Copy" transform="translate(55.977750, 19.000000) scale(-1, 1) translate(-55.977750, -19.000000) translate(30.499714, 0.000000)">
                        <polygon id="Path-11" fill="#FFFFFF" points="0.999138674 14 35.9689922 14.7272727 35.9689922 38 0.999138674 38"></polygon>
                        <polyline id="Path-12" fill="#CCCCCC" points="34.9698536 17.0516622 50.9560724 7 50.9560724 26 34.9698536 38"></polyline>
                        <polygon id="Path-14" stroke="#3D62B3" fill="#4580C6" stroke-linejoin="round" points="9.05161676e-14 9.6358692 4.55935032e-14 17 35.450907 17 50.9560724 7 50.9560724 0.5 19.1834625 0.5"></polygon>
                        <polygon id="Path-13" fill="#73A1F9" points="-4.61852778e-14 9.6358692 35.9689922 9 50.9560724 0.5 19.1834625 0.5"></polygon>
                        <polygon id="Fill-820" fill="#BF0000" transform="translate(18.983635, 31.500000) scale(-1, 1) translate(-18.983635, -31.500000) " points="15.4126141 32 13.9879414 31 23.9793282 31"></polygon>
                        <path d="M16.3858742,21.5 L17.6287361,21.5 C18.4840655,21.5 19.1834625,22.1715603 19.1834625,22.9991465 C19.1834625,23.8287812 18.4840655,24.5 17.6287361,24.5 L16.3858742,24.5 L16.3858742,21.5 Z M16.6587552,29 L16.6587552,26.2088125 L17.8412806,26.2088125 L19.888198,29 L21.9810508,29 L19.507369,25.6319057 C20.2783383,25.0657941 20.7845585,24.1453468 20.7845585,23.1029775 C20.7845585,21.3906724 19.423568,20 17.7497203,20 L14.9870801,20 L14.9870801,29 L16.6587552,29 Z" id="Fill-821" fill="#BF0000" transform="translate(18.484065, 24.500000) scale(-1, 1) translate(-18.484065, -24.500000) "></path>
                    </g>
                </g>
                <g id="Box-Open" transform="translate(870.749354, 466.500000) scale(-1, 1) translate(-870.749354, -466.500000) translate(818.294574, 451.000000)">
                    <polygon id="Path-11" fill="#F1F0F0" points="70.9388458 7.81597009e-14 104.909561 -5.67115799e-14 104.909561 19 69.9397071 19"></polygon>
                    <polyline id="Path-12" fill="#E3E3E3" points="54.952627 9 70.9388458 5.68434189e-14 70.9388458 17 54.952627 29"></polyline>
                    <polygon id="Path-11" fill="#FFFFFF" points="54.952627 9 89.9224806 9 89.9224806 31 54.952627 31"></polygon>
                    <polygon id="Path-12" stroke="#E3E2E2" stroke-width="0.1" fill="#FFFFFF" points="89.9224806 9 104.909561 0 104.909561 19 89.9224806 31"></polygon>
                    <g id="Group-2" transform="translate(0.000000, 9.000000)">
                        <polygon id="Path-14" stroke="#530808" stroke-width="0.5" fill="#9B0202" stroke-linejoin="round" points="9.05161676e-14 9.1358692 4.55935032e-14 16.5 35.450907 16.5 50.9560724 6.5 50.9560724 4.36595204e-14 19.1834625 -1.95399252e-14"></polygon>
                        <polygon id="Path-13" fill="#BF0000" points="-5.68434189e-14 9.1358692 35.9689922 8.5 50.9560724 3.11431436e-13 19.1834625 2.60236277e-13"></polygon>
                    </g>
                </g>
                <g id="Box-Main" transform="translate(95.920758, 0.000000)">
                    <g id="Box" transform="translate(542.000000, 240.000000) scale(1, -1) translate(-542.000000, -240.000000) translate(19.000000, 0.000000)">
                        <polygon id="Path-3-Copy" stroke="#979797" stroke-width="2" fill="#D8D8D8" stroke-linejoin="round" points="1 54 191.521472 54 191.521472 154.423729 1 154.423729"></polygon>
                        <polygon id="Path" stroke="#CCCCCC" stroke-width="3" stroke-linejoin="round" transform="translate(212.021472, 76.000000) scale(1, -1) translate(-212.021472, -76.000000) " points="232.521472 29.3528502 231.559978 151 191.521472 120.691781 191.521472 1"></polygon>
                        <path d="M769.780353,31.2872912 L1045.09905,31.2872912 C1045.5173,94.4816665 1045.5173,126.326619 1045.09905,126.822148 C869.954297,151.761476 542.108076,269.926203 358.317844,338.682768 C258.51031,376.021114 155.390294,422.793525 48.957795,479 C147.70068,320.900978 387.974866,171.663409 769.780353,31.2872912 Z" id="Path-9" fill-opacity="0.7" fill="#FDEC0B" transform="translate(547.185266, 255.143646) scale(1, -1) translate(-547.185266, -255.143646) "></path>
                        <path d="M566.827777,57.871647 L985.150732,57.871647 C1025.53452,57.3761177 1045.5173,57.3761177 1045.09905,57.871647 C727.285402,103.125979 392.573946,243.625979 40.9646856,479.371647 C185.774158,286.242194 361.061855,145.742194 566.827777,57.871647 Z" id="Path-9" fill-opacity="0.7" fill="#02CDF7" transform="translate(543.035085, 268.435824) scale(1, -1) translate(-543.035085, -268.435824) "></path>
                        <polygon id="Path-3" fill="#FFFFFF" points="43.6052664 0.423728814 234.126738 0.423728814 234.126738 125.423729 43.6052664 125.423729"></polygon>
                        <polygon id="Path-Copy-2" stroke="#CCCCCC" stroke-width="0.5" fill="#FFFFFF" stroke-linejoin="round" transform="translate(21.802633, 77.500000) scale(1, -1) translate(-21.802633, -77.500000) " points="43.6052664 28.5762712 43.6052664 154 1.0658141e-14 127.44549 1.0582498e-14 1"></polygon>
                    </g>
                    <g id="Group" transform="translate(304.733850, 215.000000) rotate(12.000000) translate(-304.733850, -215.000000) translate(119.893196, 161.000000)">
                        <g transform="translate(82.928510, 67.000000)" id="Clipped">
                            <g>
                                <mask id="mask-3" fill="white">
                                    <use xlink:href="#path-2"></use>
                                </mask>
                                <g id="aF"></g>
                                <path d="M0.56442252,3.16983333 C4.77515621,10.724 9.23503876,13.0165 9.23503876,13.0165 L12.2614298,10.7006667 C7.23122073,7.5775 3.77738,0.711666667 3.77738,0.711666667 L0.56678412,3.16983333 L0.56442252,3.16983333 Z" id="Path" mask="url(#mask-3)"></path>
                            </g>
                        </g>
                        <g transform="translate(199.827735, 75.000000)" id="Clipped">
                            <g>
                                <mask id="mask-5" fill="white">
                                    <use xlink:href="#path-4"></use>
                                </mask>
                                <g id="aH"></g>
                                <path d="M0.504689922,1.46183333 C1.32410853,10.073 4.48825581,13.9685 4.48825581,13.9685 L8.19081395,13.0655 C4.83782946,8.18066667 4.43317829,0.505166667 4.43317829,0.505166667 L0.504689922,1.46183333 Z" id="Path" mask="url(#mask-5)"></path>
                            </g>
                        </g>
                        <g transform="translate(171.851852, 0.000000)" id="Clipped">
                            <g>
                                <mask id="mask-7" fill="white">
                                    <use xlink:href="#path-6"></use>
                                </mask>
                                <g id="aJ"></g>
                                <path d="M3.56109676,0.5604 L0.276261843,1.3596 C0.961670973,8.5596 3.60655757,11.8164 3.60655757,11.8164 L6.70255527,11.0616 C3.89913867,6.978 3.56109676,0.5604 3.56109676,0.5604 Z" id="Path" mask="url(#mask-7)"></path>
                            </g>
                        </g>
                        <g transform="translate(312.730405, 35.000000)" id="Clipped">
                            <g>
                                <mask id="mask-9" fill="white">
                                    <use xlink:href="#path-8"></use>
                                </mask>
                                <g id="aL"></g>
                                <path d="M0.121006795,10.4953333 L4.32849076,13.3886667 C4.60824959,8.00216667 9.72828022,3.91533333 9.72828022,3.91533333 L5.2632405,0.8435 C-0.127667719,5.75866667 0.122116949,10.4953333 0.122116949,10.4953333" id="Path" mask="url(#mask-9)"></path>
                            </g>
                        </g>
                        <g transform="translate(146.873385, 67.000000)" id="Clipped">
                            <g>
                                <mask id="mask-11" fill="white">
                                    <use xlink:href="#path-10"></use>
                                </mask>
                                <g id="aN"></g>
                                <path d="M0.810729667,0.636 C-0.517268365,7.812 2.53838317,11.436 2.53838317,11.436 L7.63798696,11.1996 C4.61316599,6.7368 6.22434847,0.384 6.22434847,0.384 L0.811871539,0.636 L0.810729667,0.636 Z" id="Path" mask="url(#mask-11)"></path>
                            </g>
                        </g>
                        <g transform="translate(286.752799, 83.000000)" id="Clipped">
                            <g>
                                <mask id="mask-13" fill="white">
                                    <use xlink:href="#path-12"></use>
                                </mask>
                                <g id="aP"></g>
                                <polygon id="Path" fill="url(#linearGradient-14)" fill-rule="nonzero" mask="url(#mask-13)" points="0.512891186 7.24111111 4.19638243 9.41888889 9.17542349 2.44777778 5.49082209 0.27"></polygon>
                            </g>
                        </g>
                        <g transform="translate(102.911283, 25.000000)" id="Clipped">
                            <g>
                                <mask id="mask-16" fill="white">
                                    <use xlink:href="#path-15"></use>
                                </mask>
                                <g id="aS"></g>
                                <polygon id="Path" fill="url(#linearGradient-17)" fill-rule="nonzero" mask="url(#mask-16)" points="0.710244863 1.512 3.33426849 11.6256 7.58660268 10.5204 4.9648628 0.4068"></polygon>
                            </g>
                        </g>
                        <g transform="translate(217.812231, 21.000000)" id="Clipped">
                            <g>
                                <mask id="mask-19" fill="white">
                                    <use xlink:href="#path-18"></use>
                                </mask>
                                <g id="aV"></g>
                                <polygon id="Path" fill="url(#linearGradient-20)" fill-rule="nonzero" mask="url(#mask-19)" points="0.916085271 10.128 5.02666667 11.6796 8.71348837 1.908 4.60178295 0.354"></polygon>
                            </g>
                        </g>
                        <g transform="translate(51.955211, 21.000000)" id="Clipped">
                            <g>
                                <mask id="mask-22" fill="white">
                                    <use xlink:href="#path-21"></use>
                                </mask>
                                <g id="aY"></g>
                                <polygon id="Path" fill="url(#linearGradient-23)" fill-rule="nonzero" mask="url(#mask-22)" points="0.747133697 2.6736 5.86716432 11.4684 9.23093119 9.096 4.10979041 0.3"></polygon>
                            </g>
                        </g>
                        <g transform="translate(273.763997, 11.000000)" id="Clipped">
                            <g>
                                <mask id="mask-25" fill="white">
                                    <use xlink:href="#path-24"></use>
                                </mask>
                                <g id="bb"></g>
                                <polygon id="Path" fill="url(#linearGradient-26)" fill-rule="nonzero" mask="url(#mask-25)" points="0.528294574 10.2853636 4.56806202 12.0179091 8.68089147 2.41445455 4.64449612 0.683090909"></polygon>
                            </g>
                        </g>
                        <path d="M17.8759412,58 C17.6365924,57.8281792 17.4556249,57.5886063 17.3569586,57.3129475 C16.5422365,54.9185012 16.9703108,52.3818668 17.8724889,50.101171 C18.3949237,48.7725661 19.292499,47.7544998 18.8770827,46.3656072 C18.577891,45.3441285 16.7861928,43.723185 15.992184,43.0975577 C15.0992117,42.3877551 14.1371952,41.938441 13.055502,41.6108397 C12.2028055,41.3583138 9.54575277,41.5152894 8.99224806,41 L12.5595341,44.3294747 L15.4087601,44.5615256 C15.4087601,44.5615256 10.719505,51.7221144 13.2004949,55.5555035 L14.3546846,56.6315825 C15.4593925,57.1582469 16.6469536,57.6405487 17.8759412,58" id="Path" fill="#ED2424" fill-rule="nonzero"></path>
                        <path d="M23.9793282,58.3975 C23.2958783,58.4905 22.6211071,58.5625 21.9810508,58.6025 C22.6530161,58.5976525 23.3226488,58.5289559 23.9793282,58.3975" id="Path" fill="#FFE783" fill-rule="nonzero"></path>
                        <path d="M37.328876,57.665591 C37.328876,57.665591 35.7531039,56.4407806 33.1579129,57.3141539 C33.1579129,57.3141539 28.7408057,58.7430993 24.6507666,59.3624636 L24.6507666,59.3636235 C23.9701258,59.5166571 23.2759258,59.5963414 22.5793344,59.6013944 C20.7697816,59.7289788 19.224356,59.5851564 18.4263544,58.9437548 C17.2259803,58.5760797 16.0649442,58.0854597 14.9870801,57.5484453 L20.5168938,62.9394665 C20.5168938,62.9394665 23.6763056,65.7115278 31.6023718,62.2922656 C31.6023718,62.2922656 38.0268464,60.5107233 38.9653412,61.1208087 C39.0147948,59.572398 37.328876,57.665591 37.328876,57.665591" id="Path" fill="#791713" fill-rule="nonzero"></path>
                        <path d="M40.0734967,72.9988185 C40.0734967,72.9988185 42.000776,69.9741545 43.6549236,66.2429479 C44.2099625,64.9905479 44.1759581,63.3068971 42.1609256,60.9379708 L38.2921071,57 C38.2921071,57 39.9385762,58.9424014 39.890312,60.5208979 C39.890312,60.5208979 40.4058619,62.9382661 37.9334159,66.0928962 C37.9334159,66.0928962 37.3301128,66.8396101 36.9681309,68.0140304 C36.9681309,68.0140304 37.1063422,71.3364348 40.0723998,73" id="Path" fill="#ED2424" fill-rule="nonzero"></path>
                        <path d="M48.5583785,75.0579294 C48.2647241,74.8973512 47.9470219,74.7818972 47.6166613,74.7157062 C47.6166613,74.7157062 39.7709653,74.7789554 39.5513092,72.7662765 C36.3908315,71.1771412 36.2436152,68 36.2436152,68 C34.4010742,72.7662765 42.148626,79.3622612 49.9569337,77.7527957 C49.6563854,76.7827325 49.1831082,75.870778 48.5583785,75.0579294" id="Path" fill="#791713" fill-rule="nonzero"></path>
                        <path d="M53.6651655,88.0062202 C53.6651655,88.0062202 55.2721645,83.5653386 55.0402743,80.3684112 C54.8895457,78.310526 51.4540927,76.0474288 48.957795,74.7469838 C49.5777485,75.5766927 50.0474072,76.5075632 50.3456577,77.4977479 C50.539286,78.1456646 49.0980886,86.2907394 50.7908868,87.455145 C50.7908868,87.455145 52.226287,88.08231 54.1927157,89 C53.9187391,88.7302202 53.7346034,88.383352 53.6651655,88.0062202 M359.73005,63.2297442 C359.974694,63.0429782 360.159047,62.8147086 360.252963,62.5334066 C361.072694,60.1066009 360.642538,57.5368384 359.732369,55.2241675 C359.207138,53.8787603 358.303926,52.8457826 358.720169,51.43812 C359.021626,50.4039895 360.82805,48.76114 361.628071,48.1259049 C362.527805,47.4065097 363.497106,46.9522763 364.58699,46.6202477 C365.444984,46.3631562 368.123315,46.5234061 368.682171,46 L365.086713,49.3756234 L362.215913,49.6119631 C362.215913,49.6119631 366.939516,56.8681699 364.43974,60.7533648 L363.276811,61.8439863 C362.164897,62.3777682 360.968344,62.8654351 359.728891,63.2297442" id="Shape" fill="#ED2424" fill-rule="nonzero"></path>
                        <path d="M352.697036,64.3975 L352.695952,64.3975 C353.379031,64.4895 354.055604,64.5625 354.694229,64.6025 C354.022632,64.5976028 353.353368,64.5289068 352.697036,64.3975" id="Path" fill="#FFE783" fill-rule="nonzero"></path>
                        <path d="M340.346666,62.665591 C340.346666,62.665591 341.92019,61.4407806 344.516505,62.3141539 C344.516505,62.3141539 348.933613,63.7430993 353.024776,64.3636235 C353.705386,64.5169894 354.399581,64.5970617 355.096208,64.6025543 C356.905761,64.7289788 358.451186,64.5851564 359.248064,63.9425949 C360.449562,63.5760797 361.609474,63.0854597 362.687339,62.5484453 L357.157525,67.9394665 C357.157525,67.9394665 353.999237,70.7115278 346.07317,67.2922656 C346.07317,67.2922656 339.648695,65.5095634 338.709077,66.1208087 C338.659623,64.572398 340.346666,62.6644311 340.346666,62.6644311" id="Path" fill="#791713" fill-rule="nonzero"></path>
                        <path d="M337.601125,77.9988186 C337.601125,77.9988186 335.672875,74.9743779 334.02103,71.2422654 C333.463834,69.9899579 333.497836,68.3076128 335.512736,65.93768 L339.381301,62 C339.381301,62 337.736037,63.9434394 337.782104,65.520638 C337.782104,65.520638 337.268782,67.9390091 339.741066,71.0934062 C339.741066,71.0934062 340.34433,71.840065 340.706288,73.0143986 C340.706288,73.0143986 340.566989,76.3365576 337.601125,78" id="Path" fill="#ED2424" fill-rule="nonzero"></path>
                        <path d="M329.116043,80.0585013 C329.453707,79.884552 329.77034,79.7625616 330.056594,79.7151209 C330.056594,79.7151209 337.903477,79.7795047 338.121965,77.7666627 C341.28245,76.1773987 341.430835,73 341.430835,73 C343.27338,77.7666627 335.524642,84.3631818 327.717485,82.7524564 C328.017421,81.782427 328.490757,80.8706707 329.116043,80.0585013" id="Path" fill="#791713" fill-rule="nonzero"></path>
                        <path d="M325.094479,93.0249151 C325.094479,93.0249151 323.51573,88.6625142 323.743379,85.5220838 C323.891352,83.4994337 327.265116,81.2763307 329.715762,80 C329.106985,80.814532 328.645895,81.72861 328.35328,82.7010193 C328.164331,83.3374858 329.579173,91.3397508 327.915055,92.4824462 C327.915055,92.4824462 326.505905,93.0996602 324.577715,94 C324.839511,93.7315968 325.023907,93.4110985 325.094479,93.0249151" id="Path" fill="#ED2424" fill-rule="nonzero"></path>
                        <g transform="translate(242.790698, 23.000000)" id="Clipped">
                            <g>
                                <mask id="mask-28" fill="white">
                                    <use xlink:href="#path-27"></use>
                                </mask>
                                <g id="be"></g>
                                <path d="M1.47472868,4.7825 C1.00713178,3.37375 0.804306632,1.82875 0.785322997,0.2675 C0.39166236,1.36125 0.752351421,2.9975 1.47472868,4.7825" id="Path" mask="url(#mask-28)"></path>
                            </g>
                        </g>
                        <g transform="translate(243.789836, 27.000000)" id="Clipped">
                            <g>
                                <mask id="mask-30" fill="white">
                                    <use xlink:href="#path-29"></use>
                                </mask>
                                <g id="bg"></g>
                                <path d="M1.397795,2.786 C1.0628679,2.13103617 0.755202305,1.46246262 0.475590009,0.782 C0.710387597,1.49 1.01712317,2.161 1.397795,2.786" id="Path" mask="url(#mask-30)"></path>
                            </g>
                        </g>
                        <g transform="translate(238.794143, 20.000000)" id="Clipped">
                            <g>
                                <mask id="mask-32" fill="white">
                                    <use xlink:href="#path-31"></use>
                                </mask>
                                <g id="bi"></g>
                                <path d="M0.402852713,8.14930435 C0.402852713,8.14930435 -1.37881137,12.5831739 4.69874935,19.1488696 C4.69874935,19.1488696 8.61577261,24.906913 8.30404134,26.1336522 C9.8938708,25.5032609 11.279876,22.9464783 11.279876,22.9464783 C11.279876,22.9464783 12.0076486,20.8064348 10.2691473,18.5478261 C10.2691473,18.5478261 7.36764858,14.6786087 5.39414987,10.785913 C5.01128731,10.153796 4.70202032,9.48164066 4.4721447,8.78204348 C3.74916796,6.99769565 3.38947804,5.36126087 3.78273902,4.26834783 C3.75875969,2.88313043 3.87865633,1.48617391 4.07049096,0.157304348 L0.40045478,8.14930435 L0.402852713,8.14930435 Z" id="Path" mask="url(#mask-32)"></path>
                            </g>
                        </g>
                        <g transform="translate(233.798450, 41.000000)" id="Clipped">
                            <g>
                                <mask id="mask-34" fill="white">
                                    <use xlink:href="#path-33"></use>
                                </mask>
                                <g id="bk"></g>
                                <path d="M12.5172093,3.75777778 C12.5172093,3.75777778 10.4070284,5.19222222 6.66282761,4.08 C6.66282761,4.08 5.76874123,3.80333333 4.55493048,3.91888889 C4.55493048,3.91888889 1.47872524,5.35 0.855262705,8.81888889 C0.855262705,8.81888889 4.30486034,9.45888889 8.3322456,9.56666667 C9.68422296,9.6 11.2554399,8.91111111 12.842643,6.07111111 L15.3170813,0.86 C15.3170813,0.86 14.0153464,3.18444444 12.5172093,3.75777778" id="Path" mask="url(#mask-34)"></path>
                            </g>
                        </g>
                        <g transform="translate(231.800172, 45.000000)" id="Clipped">
                            <g>
                                <mask id="mask-36" fill="white">
                                    <use xlink:href="#path-35"></use>
                                </mask>
                                <g id="bm"></g>
                                <path d="M1.98685862,18.1355 C2.90082568,17.4059732 3.70050035,16.5334846 4.35738649,15.549125 C4.43389197,15.143 4.45672942,14.774875 4.41790575,14.475625 C4.41790575,14.475625 1.87381322,6.821 3.90520487,5.7 C4.56749108,1.88575 7.83781469,0.3123125 7.83781469,0.3123125 C2.27917805,0.6566875 -2.16270703,11.2135625 1.98571675,18.1366875" id="Path" mask="url(#mask-36)"></path>
                            </g>
                        </g>
                        <g transform="translate(222.807924, 60.000000)" id="Clipped">
                            <g>
                                <mask id="mask-38" fill="white">
                                    <use xlink:href="#path-37"></use>
                                </mask>
                                <g id="bo"></g>
                                <path d="M10.9782027,3.13536364 C10.3802182,3.61045455 1.58996268,5.785 0.939523399,7.97136364 C0.939523399,7.97136364 0.751851852,9.66372727 0.43712317,12.0072727 C0.63295435,11.6231818 0.906884869,11.2946364 1.28805627,11.05 C1.28805627,11.05 6.34353144,10.673 9.53394775,9.03381818 C11.5913408,7.982 12.81412,3.58681818 13.3491588,0.548363636 C12.6952593,1.5295843 11.8954686,2.40225267 10.9782027,3.13536364" id="Path" mask="url(#mask-38)"></path>
                            </g>
                        </g>
                        <g transform="translate(116.899225, 15.000000)" id="Clipped">
                            <g>
                                <mask id="mask-40" fill="white">
                                    <use xlink:href="#path-39"></use>
                                </mask>
                                <g id="bq"></g>
                                <path d="M2.67968992,2.345 C1.87937984,1.851 1.15300603,1.181 0.508561585,0.43 C0.761343669,1.123 1.60261843,1.772 2.67968992,2.345" id="Path" mask="url(#mask-40)"></path>
                            </g>
                        </g>
                        <g transform="translate(119.896641, 19.000000)" id="Clipped">
                            <g>
                                <mask id="mask-42" fill="white">
                                    <use xlink:href="#path-41"></use>
                                </mask>
                                <g id="bs"></g>
                                <path d="M2.26105082,0.925 C1.68852789,0.682197507 1.12620546,0.415973356 0.575503876,0.127 C1.11204134,0.457 1.67555556,0.727 2.26105082,0.925" id="Path" mask="url(#mask-42)"></path>
                            </g>
                        </g>
                        <g transform="translate(114.900947, 13.000000)" id="Clipped">
                            <g>
                                <mask id="mask-44" fill="white">
                                    <use xlink:href="#path-43"></use>
                                </mask>
                                <g id="bu"></g>
                                <path d="M2.44589147,7.93028571 C2.44589147,7.93028571 3.62693999,11.7702857 10.7143635,12.7268571 C10.7143635,12.7268571 16.0647511,14.3291429 16.5007086,15.2948571 C17.151814,14.0205714 16.6909446,11.6114286 16.6909446,11.6114286 C16.6909446,11.6114286 16.0387069,9.82742857 13.8170221,9.30742857 C13.8170221,9.30742857 10.0575963,8.376 6.85302555,6.92457143 C6.2938915,6.72173372 5.7599934,6.45403519 5.26206374,6.12685714 C3.9043675,5.36342857 2.84561355,4.49714286 2.52742119,3.57371429 C1.80972427,2.68777577 1.16335393,1.74534495 0.594487511,0.755428571 L2.44475912,7.93028571 L2.44589147,7.93028571 Z" id="Path" mask="url(#mask-44)"></path>
                            </g>
                        </g>
                        <g transform="translate(124.892334, 23.000000)" id="Clipped">
                            <g>
                                <mask id="mask-46" fill="white">
                                    <use xlink:href="#path-45"></use>
                                </mask>
                                <g id="bw"></g>
                                <path d="M6.48003876,4.29461538 C6.48003876,4.29461538 5.88430233,6.53538462 2.63922481,7.905 C2.63922481,7.905 1.85802326,8.22461538 1.09255814,9.00692308 C1.09255814,9.00692308 -0.173100775,11.8073077 1.46910853,14.64 C1.46910853,14.64 4.22748062,13.1042308 7.06678295,10.8542308 C8.01658915,10.0984615 8.68763566,8.70115385 8.0874031,5.75653846 L6.68236434,0.611538462 C6.68236434,0.611538462 7.1701938,3.02307692 6.48003876,4.29576923" id="Path" mask="url(#mask-46)"></path>
                            </g>
                        </g>
                        <g transform="translate(123.893196, 33.000000)" id="Clipped">
                            <g>
                                <mask id="mask-48" fill="white">
                                    <use xlink:href="#path-47"></use>
                                </mask>
                                <g id="by"></g>
                                <path d="M7.97162791,14.745 C8.19081395,13.68 8.19643411,12.6646154 8.10313953,11.7807692 C7.96202302,11.5096069 7.77948941,11.2634089 7.56248062,11.0515385 C7.56248062,11.0515385 1.7579845,7.47 2.46837209,5.64 C0.827286822,2.80730769 2.09069767,0.00692307692 2.09069767,0.00692307692 C-1.32635659,3.25384615 1.52418605,12.5134615 7.97162791,14.7461538" id="Path" mask="url(#mask-48)"></path>
                            </g>
                        </g>
                        <g transform="translate(128.888889, 43.000000)" id="Clipped">
                            <g>
                                <mask id="mask-50" fill="white">
                                    <use xlink:href="#path-49"></use>
                                </mask>
                                <g id="bA"></g>
                                <path d="M3.97490669,3.74514286 C3.84318691,4.37942857 -0.676083836,10.568 0.0885902957,12.3371429 C0.0885902957,12.3371429 0.884737295,13.5371429 1.95364915,15.2274286 C1.86572193,14.8703485 1.87658673,14.4967311 1.98512202,14.1451429 C1.98512202,14.1451429 5.06013781,11.152 6.23745622,8.35428571 C7.00096469,6.552 5.40983635,3.03885714 4.10662647,0.779428571 C4.21546074,1.76847704 4.17105164,2.76797715 3.97490669,3.744" id="Path" mask="url(#mask-50)"></path>
                            </g>
                        </g>
                        <polygon id="Path" fill="#F7B208" fill-rule="nonzero" points="105.245937 50 122.894057 99 101.912145 51.1818333"></polygon>
                        <g transform="translate(0.000000, 101.000000)" id="Clipped">
                            <g>
                                <mask id="mask-52" fill="white">
                                    <use xlink:href="#path-51"></use>
                                </mask>
                                <g id="bC"></g>
                                <path d="M0,4.396 C3.21722653,6.59166667 5.82830893,6.9895 7.25152646,7 L7.38030434,7 C8.05416786,6.99533333 8.42717963,6.90433333 8.42717963,6.90433333 L9.64390851,3.33316667 C5.53189779,3.8815 1.29443966,0.606666667 1.29443966,0.606666667 L0,4.396 Z" id="Path" mask="url(#mask-52)"></path>
                            </g>
                        </g>
                        <polygon id="Path" fill="#F7B208" fill-rule="nonzero" points="10.500662 79 31.9724376 101 7.99310939 81.4477895"></polygon>
                        <g transform="translate(357.691645, 101.000000)" id="Clipped">
                            <g>
                                <mask id="mask-54" fill="white">
                                    <use xlink:href="#path-53"></use>
                                </mask>
                                <g id="bE"></g>
                                <path d="M0.866852713,3.33316667 L2.20609819,6.90316667 C2.20609819,6.90316667 2.61734367,6.99533333 3.35950388,7 L3.49858398,7 C5.06443411,6.98833333 7.93715762,6.59166667 11.4765065,4.396 L10.0533333,0.606666667 C10.0533333,0.606666667 5.39175194,3.8815 0.866852713,3.33316667" id="Path" mask="url(#mask-54)"></path>
                            </g>
                        </g>
                        <g transform="translate(251.782946, 49.000000)" fill="#F7B208" fill-rule="nonzero" id="Shape">
                            <path d="M107.736686,29.7324444 L86.0918454,51.4222222 L110.264382,32.1452444 L107.736686,29.7324444 Z M21.7476583,2.14008889 L0.382389104,48.6119111 L18.5649332,0.674844444 L21.7476583,2.14008889 Z"></path>
                        </g>
                        <g transform="translate(184.840655, 31.000000)" id="Clipped">
                            <g>
                                <mask id="mask-56" fill="white">
                                    <use xlink:href="#path-55"></use>
                                </mask>
                                <g id="bG"></g>
                                <polygon id="Path" mask="url(#mask-56)" points="2.26704565 57.96056 2.85653747 0.08468 0.201826012 0.01508"></polygon>
                            </g>
                        </g>
                    </g>
                    <g id="Group" transform="translate(503.755413, 117.172482) rotate(46.000000) translate(-503.755413, -117.172482) translate(497.261012, 110.172482)">
                        <g id="Clipped">
                            <mask id="mask-58" fill="white">
                                <use xlink:href="#path-57"></use>
                            </mask>
                            <g id="aF"></g>
                            <path d="M0.56442252,3.16983333 C4.77515621,10.724 9.23503876,13.0165 9.23503876,13.0165 L12.2614298,10.7006667 C7.23122073,7.5775 3.77738,0.711666667 3.77738,0.711666667 L0.56678412,3.16983333 L0.56442252,3.16983333 Z" id="Path" fill="#F8E216" mask="url(#mask-58)"></path>
                        </g>
                    </g>
                    <g id="Group" transform="translate(624.586436, 145.662881) rotate(8.000000) translate(-624.586436, -145.662881) translate(620.090312, 138.662881)">
                        <g id="Clipped">
                            <mask id="mask-60" fill="white">
                                <use xlink:href="#path-59"></use>
                            </mask>
                            <g id="aH"></g>
                            <path d="M0.504689922,1.46183333 C1.32410853,10.073 4.48825581,13.9685 4.48825581,13.9685 L8.19081395,13.0655 C4.83782946,8.18066667 4.43317829,0.505166667 4.43317829,0.505166667 L0.504689922,1.46183333 Z" id="Path" mask="url(#mask-60)"></path>
                        </g>
                    </g>
                    <g id="Group" transform="translate(606.461442, 66.366488) rotate(8.000000) translate(-606.461442, -66.366488) translate(602.964457, 60.366488)">
                        <g id="Clipped">
                            <mask id="mask-62" fill="white">
                                <use xlink:href="#path-61"></use>
                            </mask>
                            <g id="aJ"></g>
                            <path d="M3.56109676,0.5604 L0.276261843,1.3596 C0.961670973,8.5596 3.60655757,11.8164 3.60655757,11.8164 L6.70255527,11.0616 C3.89913867,6.978 3.56109676,0.5604 3.56109676,0.5604 Z" id="Path" mask="url(#mask-62)"></path>
                        </g>
                    </g>
                    <g id="Group" transform="translate(742.447182, 121.848305) rotate(8.000000) translate(-742.447182, -121.848305) translate(737.451488, 114.848305)">
                        <g id="Clipped">
                            <mask id="mask-64" fill="white">
                                <use xlink:href="#path-63"></use>
                            </mask>
                            <g id="aL"></g>
                            <path d="M0.121006795,10.4953333 L4.32849076,13.3886667 C4.60824959,8.00216667 9.72828022,3.91533333 9.72828022,3.91533333 L5.2632405,0.8435 C-0.127667719,5.75866667 0.122116949,10.4953333 0.122116949,10.4953333" id="Path" mask="url(#mask-64)"></path>
                        </g>
                    </g>
                    <g id="Group" transform="translate(572.904206, 129.304707) rotate(8.000000) translate(-572.904206, -129.304707) translate(568.907651, 123.304707)">
                        <g id="Clipped">
                            <mask id="mask-66" fill="white">
                                <use xlink:href="#path-65"></use>
                            </mask>
                            <g id="aN"></g>
                            <path d="M0.810729667,0.636 C-0.517268365,7.812 2.53838317,11.436 2.53838317,11.436 L7.63798696,11.1996 C4.61316599,6.7368 6.22434847,0.384 6.22434847,0.384 L0.811871539,0.636 L0.810729667,0.636 Z" id="Path" mask="url(#mask-66)"></path>
                        </g>
                    </g>
                    <g id="Group" transform="translate(710.325940, 163.782136) rotate(8.000000) translate(-710.325940, -163.782136) translate(705.330246, 158.782136)">
                        <g id="Clipped">
                            <mask id="mask-68" fill="white">
                                <use xlink:href="#path-67"></use>
                            </mask>
                            <g id="aP"></g>
                            <polygon id="Path" fill="url(#linearGradient-14)" fill-rule="nonzero" mask="url(#mask-68)" points="0.512891186 7.24111111 4.19638243 9.41888889 9.17542349 2.44777778 5.49082209 0.27"></polygon>
                        </g>
                    </g>
                    <g id="Group" transform="translate(546.806433, 99.890619) rotate(46.000000) translate(-546.806433, -99.890619) translate(542.809879, 93.890619)">
                        <g id="Clipped">
                            <mask id="mask-70" fill="white">
                                <use xlink:href="#path-69"></use>
                            </mask>
                            <g id="aS"></g>
                            <polygon id="Path" fill="url(#linearGradient-17)" fill-rule="nonzero" mask="url(#mask-70)" points="0.710244863 1.512 3.33426849 11.6256 7.58660268 10.5204 4.9648628 0.4068"></polygon>
                        </g>
                    </g>
                    <g id="Group" transform="translate(650.043836, 93.703253) rotate(8.000000) translate(-650.043836, -93.703253) translate(645.547712, 87.703253)">
                        <g id="Clipped">
                            <mask id="mask-72" fill="white">
                                <use xlink:href="#path-71"></use>
                            </mask>
                            <g id="aV"></g>
                            <polygon id="Path" fill="url(#linearGradient-20)" fill-rule="nonzero" mask="url(#mask-72)" points="0.916085271 10.128 5.02666667 11.6796 8.71348837 1.908 4.60178295 0.354"></polygon>
                        </g>
                    </g>
                    <g id="Group" transform="translate(514.978312, 61.144995) rotate(46.000000) translate(-514.978312, -61.144995) translate(509.982619, 55.144995)">
                        <g id="Clipped">
                            <mask id="mask-74" fill="white">
                                <use xlink:href="#path-73"></use>
                            </mask>
                            <g id="aY"></g>
                            <polygon id="Path" fill="url(#linearGradient-23)" fill-rule="nonzero" mask="url(#mask-74)" points="0.747133697 2.6736 5.86716432 11.4684 9.23093119 9.096 4.10979041 0.3"></polygon>
                        </g>
                    </g>
                    <g id="Group" transform="translate(706.772088, 92.089400) rotate(8.000000) translate(-706.772088, -92.089400) translate(702.275964, 85.589400)">
                        <g id="Clipped">
                            <mask id="mask-76" fill="white">
                                <use xlink:href="#path-75"></use>
                            </mask>
                            <g id="bb"></g>
                            <polygon id="Path" fill="url(#linearGradient-26)" fill-rule="nonzero" mask="url(#mask-76)" points="0.528294574 10.2853636 4.56806202 12.0179091 8.68089147 2.41445455 4.64449612 0.683090909"></polygon>
                        </g>
                    </g>
                    <g id="Group-5" transform="translate(897.597826, 104.441251) rotate(12.000000) translate(-897.597826, -104.441251) translate(882.610746, 91.441251)" fill-rule="nonzero">
                        <path d="M18.9464803,10.4851241 L18.9458545,10.485122 C19.340314,10.5408244 19.7309806,10.5852919 20.099677,10.6101929 C19.7120186,10.6059587 19.3255798,10.5640479 18.9464803,10.4851241" id="Path" fill="#FFE783" transform="translate(19.522766, 10.547657) rotate(8.000000) translate(-19.522766, -10.547657) "></path>
                        <path d="M11.7505879,9.19105857 C11.7505879,9.19105857 12.6563874,8.47079409 14.1567336,8.99182006 C14.1567336,8.99182006 16.7091572,9.84462026 19.0718308,10.2192926 C19.4649879,10.3112346 19.8658395,10.3599144 20.2679464,10.3645502 C21.3126796,10.4428351 22.2044181,10.3609769 22.6630964,9.98305366 C23.3558742,9.76897958 24.0244006,9.48152257 24.6454761,9.16649983 L21.4644069,12.3395439 C21.4644069,12.3395439 19.646964,13.970493 15.0651831,11.9351449 C15.0651831,11.9351449 11.3533933,10.8693956 10.8122618,11.2285374 C10.7806263,10.313903 11.7505855,9.19037353 11.7505855,9.19037353" id="Path" fill="#791713" transform="translate(17.728490, 10.880284) rotate(8.000000) translate(-17.728490, -10.880284) "></path>
                        <path d="M9.90481193,17.1345721 C9.90481193,17.1345721 8.78578183,15.3443989 7.8248809,13.1368066 C7.50076547,12.3960449 7.51703364,11.4024717 8.67531153,10.006747 L10.9004025,7.68876907 C10.9004025,7.68876907 9.95462867,8.8333331 9.98436707,9.76496365 C9.98436707,9.76496365 9.69290247,11.1922972 11.1262105,13.0603133 C11.1262105,13.0603133 11.475907,13.5025164 11.6871746,14.1968345 C11.6871746,14.1968345 11.6134017,16.1587183 9.90481429,17.1352698" id="Path" fill="#ED2424" transform="translate(9.665505, 12.412019) rotate(8.000000) translate(-9.665505, -12.412019) "></path>
                        <path d="M4.36834195,18.0895457 C4.5628955,17.9874808 4.74541361,17.9160623 4.9105462,17.8886143 C4.9105462,17.8886143 9.43992538,17.9423173 9.56201997,16.7539118 C11.3830918,15.8215609 11.4623981,13.9451949 11.4623981,13.9451949 C12.5354366,16.764203 8.07600207,20.6448156 3.56646585,19.6778786 C3.73765411,19.1055507 4.00904526,18.5679869 4.36834195,18.0895457" id="Path" fill="#791713" transform="translate(7.595176, 16.887101) rotate(8.000000) translate(-7.595176, -16.887101) "></path>
                        <path d="M1.38038505,25.0474226 C1.38038505,25.0474226 0.460417743,22.4677101 0.585549512,20.613337 C0.666922347,19.4189977 2.60983487,18.1127094 4.02180965,17.3637678 C3.67204699,17.8436375 3.40772822,18.3825969 3.24077118,18.956345 C3.13297947,19.3318829 3.96560393,24.0610757 3.00734984,24.7326598 C3.00734984,24.7326598 2.19521503,25.0943889 1.08405305,25.6223033 C1.23462746,25.4642997 1.34042184,25.2753726 1.38038505,25.0474226" id="Path" fill="#ED2424" transform="translate(2.297830, 21.493036) rotate(8.000000) translate(-2.297830, -21.493036) "></path>
                        <path d="M23.8624129,10.052782 C24.0080761,9.94438457 24.1178413,9.81189879 24.1737594,9.64863348 C24.6618349,8.24013566 24.4057161,6.74866694 23.8637936,5.406412 C23.5510663,4.62554884 23.0132859,4.02601722 23.2611205,3.20902157 C23.4406108,2.60882084 24.5161716,1.65532468 24.9925112,1.28663951 C25.5282205,0.869108558 26.1053508,0.605475236 26.7542771,0.412768645 C27.265134,0.263554862 28.8598359,0.356562556 29.1925832,0.0527820279 L27.0518167,2.0119657 L25.3425172,2.14913532 C25.3425172,2.14913532 28.1549914,6.36057728 26.666603,8.61551204 L25.9741848,9.24849966 C25.3121419,9.55830227 24.5997036,9.84134007 23.8617225,10.052782" id="Path" fill="#ED2424"></path>
                    </g>
                    <g id="Group" transform="translate(671.524841, 95.210072) rotate(8.000000) translate(-671.524841, -95.210072) translate(670.525702, 92.710072)">
                        <g id="Clipped">
                            <mask id="mask-78" fill="white">
                                <use xlink:href="#path-77"></use>
                            </mask>
                            <g id="be"></g>
                            <path d="M1.47472868,4.7825 C1.00713178,3.37375 0.804306632,1.82875 0.785322997,0.2675 C0.39166236,1.36125 0.752351421,2.9975 1.47472868,4.7825" id="Path" mask="url(#mask-78)"></path>
                        </g>
                    </g>
                    <g id="Group" transform="translate(672.097096, 98.320050) rotate(8.000000) translate(-672.097096, -98.320050) translate(671.097957, 96.820050)">
                        <g id="Clipped">
                            <mask id="mask-80" fill="white">
                                <use xlink:href="#path-79"></use>
                            </mask>
                            <g id="bg"></g>
                            <path d="M1.397795,2.786 C1.0628679,2.13103617 0.755202305,1.46246262 0.475590009,0.782 C0.710387597,1.49 1.01712317,2.161 1.397795,2.786" id="Path" mask="url(#mask-80)"></path>
                        </g>
                    </g>
                    <g id="Group" transform="translate(548.604722, 68.831436) rotate(8.000000) translate(-548.604722, -68.831436) translate(547.106013, 67.331436)">
                        <g id="Clipped">
                            <mask id="mask-82" fill="white">
                                <use xlink:href="#path-81"></use>
                            </mask>
                            <g id="bq"></g>
                            <path d="M2.67968992,2.345 C1.87937984,1.851 1.15300603,1.181 0.508561585,0.43 C0.761343669,1.123 1.60261843,1.772 2.67968992,2.345" id="Path" mask="url(#mask-82)"></path>
                        </g>
                    </g>
                    <g id="Group" transform="translate(551.086281, 72.714893) rotate(8.000000) translate(-551.086281, -72.714893) translate(549.587573, 71.714893)">
                        <g id="Clipped">
                            <mask id="mask-84" fill="white">
                                <use xlink:href="#path-83"></use>
                            </mask>
                            <g id="bs"></g>
                            <path d="M2.26105082,0.925 C1.68852789,0.682197507 1.12620546,0.415973356 0.575503876,0.127 C1.11204134,0.457 1.67555556,0.727 2.26105082,0.925" id="Path" mask="url(#mask-84)"></path>
                        </g>
                    </g>
                    <g id="Group" transform="translate(552.926058, 73.983507) rotate(8.000000) translate(-552.926058, -73.983507) translate(544.433379, 65.983507)">
                        <g id="Clipped">
                            <mask id="mask-86" fill="white">
                                <use xlink:href="#path-85"></use>
                            </mask>
                            <g id="bu"></g>
                            <path d="M2.44589147,7.93028571 C2.44589147,7.93028571 3.62693999,11.7702857 10.7143635,12.7268571 C10.7143635,12.7268571 16.0647511,14.3291429 16.5007086,15.2948571 C17.151814,14.0205714 16.6909446,11.6114286 16.6909446,11.6114286 C16.6909446,11.6114286 16.0387069,9.82742857 13.8170221,9.30742857 C13.8170221,9.30742857 10.0575963,8.376 6.85302555,6.92457143 C6.2938915,6.72173372 5.7599934,6.45403519 5.26206374,6.12685714 C3.9043675,5.36342857 2.84561355,4.49714286 2.52742119,3.57371429 C1.80972427,2.68777577 1.16335393,1.74534495 0.594487511,0.755428571 L2.44475912,7.93028571 L2.44589147,7.93028571 Z" id="Path" mask="url(#mask-86)"></path>
                        </g>
                    </g>
                    <g id="Group" transform="translate(557.541543, 84.226093) rotate(8.000000) translate(-557.541543, -84.226093) translate(553.045419, 76.726093)">
                        <g id="Clipped">
                            <mask id="mask-88" fill="white">
                                <use xlink:href="#path-87"></use>
                            </mask>
                            <g id="bw"></g>
                            <path d="M6.48003876,4.29461538 C6.48003876,4.29461538 5.88430233,6.53538462 2.63922481,7.905 C2.63922481,7.905 1.85802326,8.22461538 1.09255814,9.00692308 C1.09255814,9.00692308 -0.173100775,11.8073077 1.46910853,14.64 C1.46910853,14.64 4.22748062,13.1042308 7.06678295,10.8542308 C8.01658915,10.0984615 8.68763566,8.70115385 8.0874031,5.75653846 L6.68236434,0.611538462 C6.68236434,0.611538462 7.1701938,3.02307692 6.48003876,4.29576923" id="Path" mask="url(#mask-88)"></path>
                        </g>
                    </g>
                    <g id="Group" transform="translate(555.165434, 93.990140) rotate(8.000000) translate(-555.165434, -93.990140) translate(550.665434, 86.490140)">
                        <g id="Clipped" transform="translate(0.000000, 0.000000)">
                            <mask id="mask-90" fill="white">
                                <use xlink:href="#path-89"></use>
                            </mask>
                            <g id="by"></g>
                            <path d="M7.97162791,14.745 C8.19081395,13.68 8.19643411,12.6646154 8.10313953,11.7807692 C7.96202302,11.5096069 7.77948941,11.2634089 7.56248062,11.0515385 C7.56248062,11.0515385 1.7579845,7.47 2.46837209,5.64 C0.827286822,2.80730769 2.09069767,0.00692307692 2.09069767,0.00692307692 C-1.32635659,3.25384615 1.52418605,12.5134615 7.97162791,14.7461538" id="Path" mask="url(#mask-90)"></path>
                        </g>
                    </g>
                    <g id="Group" transform="translate(557.659197, 104.944107) rotate(8.000000) translate(-557.659197, -104.944107) translate(554.162212, 96.944107)">
                        <g id="Clipped">
                            <mask id="mask-92" fill="white">
                                <use xlink:href="#path-91"></use>
                            </mask>
                            <g id="bA"></g>
                            <path d="M3.97490669,3.74514286 C3.84318691,4.37942857 -0.676083836,10.568 0.0885902957,12.3371429 C0.0885902957,12.3371429 0.884737295,13.5371429 1.95364915,15.2274286 C1.86572193,14.8703485 1.87658673,14.4967311 1.98512202,14.1451429 C1.98512202,14.1451429 5.06013781,11.152 6.23745622,8.35428571 C7.00096469,6.552 5.40983635,3.03885714 4.10662647,0.779428571 C4.21546074,1.76847704 4.17105164,2.76797715 3.97490669,3.744" id="Path" mask="url(#mask-92)"></path>
                        </g>
                    </g>
                    <polygon id="Path" fill="#F7B208" fill-rule="nonzero" transform="translate(519.359094, 134.065309) rotate(46.000000) translate(-519.359094, -134.065309) " points="512.187939 109.572427 529.865021 158.55819 508.853168 110.752297"></polygon>
                    <g id="Group" transform="translate(424.069421, 140.178879) rotate(8.000000) translate(-424.069421, -140.178879) translate(419.073727, 136.678879)">
                        <g id="Clipped">
                            <mask id="mask-94" fill="white">
                                <use xlink:href="#path-93"></use>
                            </mask>
                            <g id="bC"></g>
                            <path d="M0,4.396 C3.21722653,6.59166667 5.82830893,6.9895 7.25152646,7 L7.38030434,7 C8.05416786,6.99533333 8.42717963,6.90433333 8.42717963,6.90433333 L9.64390851,3.33316667 C5.53189779,3.8815 1.29443966,0.606666667 1.29443966,0.606666667 L0,4.396 Z" id="Path" mask="url(#mask-94)"></path>
                        </g>
                    </g>
                    <polygon id="Path-4" fill-opacity="0.3" fill="#CCCCCC" points="19 351.5 51.8869906 373 54.3631271 348.490663 20 330"></polygon>
                    <polygon id="Path-4" fill-opacity="0.3" fill="#CCCCCC" points="63.6052664 373.5 157.142374 355 63.6052664 358"></polygon>
                    <g id="Group" transform="translate(787.895710, 64.471077) rotate(8.000000) translate(-787.895710, -64.471077) translate(732.443513, 38.471077)" fill="#F7B208" fill-rule="nonzero">
                        <path d="M107.736686,29.7324444 L86.0918454,51.4222222 L110.264382,32.1452444 L107.736686,29.7324444 Z M21.7476583,2.14008889 L0.382389104,48.6119111 L18.5649332,0.674844444 L21.7476583,2.14008889 Z" id="Shape"></path>
                    </g>
                    <g id="Top" transform="translate(123.740047, 321.336038) rotate(-8.000000) translate(-123.740047, -321.336038) translate(3.843406, 285.336038)" stroke="#B00F0F" stroke-linejoin="round" stroke-width="2">
                        <polygon id="Path" fill="#B30202" points="47.7979627 32.7232371 38.1885246 70.7364684 0.763632571 37.5464727 5.37037037 0.000770795851"></polygon>
                        <polygon id="Path-2" fill="#BF0000" points="6.04166667 0 187.121985 0 238.981481 32.7232371 47.7979627 32.7232371"></polygon>
                        <polygon id="Path-3" fill="#B30202" points="47.7979627 32.7232371 238.981481 32.7232371 238.981481 71.7737258 47.7979627 71.7737258"></polygon>
                    </g>
                    <polygon id="Fill-820" fill="#BF0000" points="140.292164 425 133.881137 420 178.842377 420"></polygon>
                    <path d="M146.041152,385.214986 L150.716717,385.214986 C153.93441,385.214986 156.565496,387.851902 156.565496,391.101461 C156.565496,394.359063 153.93441,396.994638 150.716717,396.994638 L146.041152,396.994638 L146.041152,385.214986 Z M146.041152,416 L146.041152,404.214986 L151.109118,404.214986 L159.881621,416 L168.850991,416 L158.249497,401.779158 C161.553651,399.388908 163.723166,395.502575 163.723166,391.101461 C163.723166,383.871728 157.89035,378 150.716717,378 L138.87683,378 L138.87683,416 L146.041152,416 Z" id="Fill-821" fill="#BF0000"></path>
                </g>
                <g id="Person" transform="translate(320.000000, 263.000000)">
                    <path d="M56.7345807,179.245264 L56.7345807,206.315994 C55.7636659,216.775888 51.8089998,222.005835 44.8705824,222.005835 C43.6131606,224.668612 44.3575691,226 47.1038079,226 C49.8500467,226 51.9236179,226 53.3245216,226 C58.3899344,223.542813 62.112767,220.47488 64.4930192,216.796201 C66.8732715,213.117521 66.8732715,210.696488 64.4930192,209.533101 C62.5963849,208.984929 62.1222264,207.91256 63.0705435,206.315994 L61.9554232,179 L56.7345807,179.245264 Z" id="Path-8" fill="#F8B595"></path>
                    <path d="M50.2659935,215.40382 C47.8814211,218.958279 41.5539539,219.149953 41.2852343,224.006096 C41.1633146,226.189502 42.6465682,227.577571 44.3007935,228.328464 C45.3967506,228.825945 46.626032,229.04003 47.9294526,228.993877 C49.0354074,228.954717 50.1947391,228.728196 51.3712924,228.328464 C56.0299356,226.74776 53.7296673,224.414803 60.6148874,219.161866 C67.3112559,216.46623 64.9607729,212.717404 64.523144,211.123634 C63.8907288,207.057459 57.7374025,210.206788 55.3000908,209.529864 C55.3013465,209.529864 52.6480545,211.844508 50.2659935,215.40382 Z" id="Path" fill="#111111" fill-rule="nonzero"></path>
                    <path d="M58.7345807,181.245264 L58.7345807,208.315994 C57.7636659,218.775888 53.8089998,224.005835 46.8705824,224.005835 C45.6131606,226.668612 46.3575691,228 49.1038079,228 C51.8500467,228 53.9236179,228 55.3245216,228 C60.3899344,225.542813 64.112767,222.47488 66.4930192,218.796201 C68.8732715,215.117521 68.8732715,212.696488 66.4930192,211.533101 C64.5963849,210.984929 64.1222264,209.91256 65.0705435,208.315994 L63.9554232,181 L58.7345807,181.245264 Z" id="Path-8" fill="#FCC7AE"></path>
                    <g id="Path" fill-rule="nonzero">
                        <use fill="black" fill-opacity="1" filter="url(#filter-96)" xlink:href="#path-95"></use>
                        <use fill="#111111" xlink:href="#path-95"></use>
                    </g>
                    <path d="M41.2782084,110.110625 C42.2577368,150.987488 46.1941083,183.283946 53.0873228,207 L69.2559652,207 L62.8192063,158.208507 C66.5333114,138.348548 68.6788977,124.107747 69.2559652,115.486102 C70.1215665,102.553636 45.4598856,86.4424924 41.2782084,110.110625 Z" id="Path-7" fill="#ADADAD"></path>
                    <path d="M62.9459142,64.3543229 C65.9492563,64.3543229 72.9065822,68.658654 63.6131739,77.8302381 L45.2782084,90.2028752 L25.5484691,59.1641057 L20.0452614,60.6561053 C17.3831399,61.7222974 16.853417,61.2249642 18.4560928,59.1641057 C18.795347,58.8910146 20.3512094,57.9672422 18.1006347,57.6011724 C16.3771673,57.3208398 10.9541005,58.6161526 10.9541005,56.9728896 C11.249891,56.5124468 11.1078337,56.7045994 10.9541005,55.8469608 C10.8003673,54.9893223 10.7530092,55.9858529 10.9541005,54.5042505 C11.0075346,54.0183413 9.92583684,53.6545905 10.3134159,53.0409037 C10.7670068,52.3390633 13.8564321,52.0085369 18.6424761,51 C21.7232693,51.5062294 23.0483391,51.0487601 25.5484691,52.2375508 C27.2152225,53.030078 28.2371126,53.7856445 28.6141393,54.5042505 L48.2758865,78.5 C56.0536769,69.0695486 60.9436861,64.3543229 62.9459142,64.3543229 Z" id="Path-6" fill="#F7BB9F"></path>
                    <path d="M63.0521935,61.4577772 C71.9965195,58.0789558 67.3086432,67.9931441 68.886689,66.9765216 C70.2866147,66.0746491 77.2987423,66.1743926 76.2370033,64.3362478 C73.3454795,59.3302723 72.2787643,50.6332823 74.5742708,44.6500583 C77.5074606,37.0047167 73.8677538,34.1197593 67.27113,33.5223622 C59.9927311,32.8632228 57.6625352,38.694408 56.088432,45.0703389 C55.7060853,46.6190402 52.5368641,65.430063 63.0521935,61.4577772 Z" id="Oval" fill="#FCC7AE" transform="translate(65.845977, 50.260716) rotate(29.000000) translate(-65.845977, -50.260716) "></path>
                    <path d="M58.8981048,65.6571581 L58.4051795,64.5284308 C51.8870909,67.4740889 46.8746761,72.1312786 43.3679349,78.5 C41.6481557,80.9411064 41.2782084,98 41.2782084,122.778328 C43.2935151,122.515192 52.2935151,123.553024 68.2782084,125.891825 C74.8314446,99.6180451 77.5742458,80.6364096 76.5066119,68.9469179 C71.3952659,64.5710933 68.5082559,63.0982642 67.8455819,64.5284308 L58.8981048,65.6571581 Z" id="Path-5" fill="#448FB4"></path>
                    <path d="M60.9781921,74.3383817 C65.0898269,74.3383817 74.6145436,77.9717874 61.8916839,85.7137768 C45.0439367,95.4631818 35.9720278,98.896198 34.6759572,96.0128256 C33.5510806,95.1768743 27.7958941,85.5502853 17.4103976,67.1330584 L13.2431213,66.2681898 C8.22002503,66.489412 5.60023332,66.4000154 5.38374619,66 C5.05901548,65.3999769 1.47262601,65.1540762 1.3056222,64.35305 C1.13861839,63.5520239 0.37962834,63.6055074 0.210114529,63.0781339 C-0.0518808288,60.9706505 10.690035,61.7812326 10.6589064,61.7245843 C12.1005565,60.821849 7.27112835,61.0594877 7.50170145,60.3684497 C7.73227456,59.6774117 12.1005565,60.1257874 15.1640251,60.3684497 C17.2063376,60.5302246 19.4195824,61.9738267 21.8037595,64.699256 L42.1748458,85.7137768 C51.9693202,78.13018 58.2371023,74.3383817 60.9781921,74.3383817 Z" id="Path-6" fill="#FCC7AE"></path>
                    <g id="Group" transform="translate(74.336542, 23.725606) rotate(35.000000) translate(-74.336542, -23.725606) translate(55.836542, 8.225606)">
                        <g id="Clipped" transform="translate(0.160315, 0.000244)">
                            <mask id="mask-98" fill="white">
                                <use xlink:href="#path-97"></use>
                            </mask>
                            <g id="f"></g>
                        </g>
                    </g>
                    <path d="M77.4518617,47.2314162 C75.9208402,47.0880319 75.6846399,48.975558 75.6846399,48.975558 L74.1372119,49.3034311 C74.1372119,49.3034311 74.6298778,45.1955142 73.1013955,44.4779493 C71.5729109,43.762672 61.3522042,46.5896412 60.1254279,45.3844565 C58.8996479,44.1804144 59.6068382,35.9004375 63.5465048,34.8670361 C67.4861713,33.8336346 71.8990631,31.1612502 76.3885731,34.5539197 C76.3885731,34.5539197 79.8892156,34.1035567 80.4059184,37.2620435 C80.9216249,40.4193877 80.205594,49.7123322 79.251755,52.0628246 C76.9328917,53.9537694 78.9838795,47.3759431 77.4518617,47.2314162 Z" id="Path" fill="#3A3F47" fill-rule="nonzero" transform="translate(70.078374, 42.646211) rotate(40.000000) translate(-70.078374, -42.646211) "></path>
                    <path d="M62.0555119,60.3397578 C63.9017529,57.0821887 64.8282731,55.4172013 64.8350724,55.3447958 C62.7049503,57.757395 60.9985519,59.4647622 59.7158773,60.4668974 L62.0555119,60.3397578 Z" id="Path" fill="#E79B74" fill-rule="nonzero" transform="translate(62.275475, 57.905847) rotate(38.000000) translate(-62.275475, -57.905847) "></path>
                    <path d="M44.7400592,84.9141291 C43.2238125,85.5037052 41.0862283,86.3355552 38.3273065,87.4096789 L38.8754991,88.0481817 C43.9656556,86.3206989 44.504999,85.6375701 44.7400592,84.9141291 Z" id="Path" fill="#E79B74" fill-rule="nonzero" transform="translate(41.533683, 86.481155) rotate(162.000000) translate(-41.533683, -86.481155) "></path>
                    <path d="M43.3679349,84 L43.9966286,95.4174903 C59.5176818,87.8058301 68.215503,82.2745564 70.0900921,78.8236692 C70.8258207,78.2816145 71.2218595,77.4812137 71.2782084,76.4224668 C69.4342043,72.0040689 67.7220461,69.2377461 66.1417337,68.1234984 C55.3735391,70.0160073 47.7822728,75.3081745 43.3679349,84 Z" id="Path-10" fill="#448FBB"></path>
                    <path d="M42.5034465,95.7805124 C44.8940836,95.3691159 50.7262681,91.4422785 60,84 C49.8394812,93.0660442 44.5466586,97.3901754 44.1215323,96.9723938 L42.5034465,95.7805124 Z" id="Path-17" fill="#999999"></path>
                    <path d="M49.1659388,76.0402159 C46.8656627,78.1780466 44.9781652,81.1871724 43.5034465,85.0675933 C44.0797721,81.3942768 45.9672695,78.385151 49.1659388,76.0402159 Z" id="Path-17" fill="#999999"></path>
                    <polygon id="Path-18" fill="#F7BB9F" points="24.1857204 51.629788 29.047496 54.3118654 26.4853802 60.6857908 24.6163936 58.3360378"></polygon>
                </g>
                <g id="Bird-Red" transform="translate(95.917313, 61.000000)">
                    <path d="M27.0730129,8.69974403 C31.0092546,2.89991468 34.3561157,-5.65508212e-14 37.1135964,-5.68434189e-14 L37.3836248,1.51763765 C39.6764384,0.505879216 41.5657034,-5.6744354e-14 43.0514197,-5.68434189e-14 C44.537136,-5.68434189e-14 40.9150956,2.89991468 32.1852983,8.69974403 L27.0730129,8.69974403 Z" id="Path-16" fill="url(#linearGradient-99)"></path>
                    <path d="M13.90311,17.6390703 C14.8581675,17.8355461 15.5239114,18.3941716 15.9003418,19.3149468 C16.2767722,20.235722 16.3590252,20.6971734 16.1471006,20.699301 L14.1478124,20.6984527 L13.90311,17.6390703 Z" id="Triangle" fill="#111111" transform="translate(15.082356, 19.169186) rotate(-130.000000) translate(-15.082356, -19.169186) "></path>
                    <path d="M25.4027767,5.50727894 C16.4247285,2.0062869 19.3830052,-4.12536318 -2.13162821e-14,4.07928139 C9.02684193,2.94739266 14.9106023,4.44043611 17.6512811,8.55841173 C21.7622992,14.7353752 17.8466319,13.5429331 15.4411771,14.7353752 C13.7031311,16.2358079 14.2941648,18.821397 15.4411771,19.5824232 C17.947103,21.2450689 23.7378582,19.7430417 25.4027767,18.1715555 C29.0432542,14.7353752 34.1171085,11.2991948 41.2498174,14.7353752 C46.0049567,17.026162 50.3036929,20.512216 54.1460258,25.193537 C53.6930196,11.7378562 44.1119366,5.17577013 25.4027767,5.50727894 Z" id="Path-15" fill="#FA6862"></path>
                </g>
                <g id="Bird-Orange" transform="translate(81.929371, 94.000000)">
                    <path d="M30.9732989,16 C39.7861707,6.23393357 46.4740891,1.35090035 51.0370543,1.35090035 L48.0348735,5.26780114 C60.539984,-0.577399621 63.6662616,-1.33333333 57.4137064,3 C51.1611511,7.33333333 45.1675482,11.6666667 39.4328976,16 L30.9732989,16 Z" id="Path-16" fill="url(#linearGradient-100)"></path>
                    <path d="M15.9136809,26.3561092 C17.0131708,26.5857909 17.7813369,27.2303588 18.2181792,28.2898129 C18.6550215,29.3492669 18.7515502,29.8797784 18.5077655,29.8813471 L16.2078229,29.8721114 L15.9136809,26.3561092 Z" id="Triangle" fill="#111111" transform="translate(17.276212, 28.118728) rotate(-130.000000) translate(-17.276212, -28.118728) "></path>
                    <path d="M29.0624393,12.3393675 C18.7909645,8.30941451 22.1754267,1.25134037 0,10.6956154 C10.327298,9.39271088 17.058705,11.1113366 20.1942209,15.8514925 C24.8974948,22.9617263 20.4177151,21.5891195 17.6657174,22.9617263 C15.6772789,24.6888577 16.3534602,27.6651006 17.6657174,28.5411093 C20.5326606,30.4549623 27.1576636,28.7259955 29.0624393,26.9170752 C33.2273839,22.9617263 39.0322053,19.0063774 47.1924912,22.9617263 C52.6326819,25.5986256 57.5507174,29.6113835 61.9465978,35 C61.428329,19.5113156 50.4669429,11.9577714 29.0624393,12.3393675 Z" id="Path-15" fill="#F4893B"></path>
                </g>
                <g id="Bird-Yellow" transform="translate(183.255205, 51.632618) rotate(19.000000) translate(-183.255205, -51.632618) translate(160.275016, 38.132618)">
                    <path d="M22.5368514,10.9986117 C28.9619509,4.33194508 33.3376926,0.998611745 35.6640764,0.998611745 L32.0771991,3.87646517 C35.7920848,2.65540364 37.9407085,2.5864271 38.5230702,3.66953556 C35.6233908,5.67833421 31.7323329,8.1213596 26.8498963,10.9986117 L22.5368514,10.9986117 Z" id="Path-16" fill="url(#linearGradient-101)"></path>
                    <path d="M11.4567295,19.5888518 C12.2900243,19.7821423 12.8817967,20.2786983 13.2320467,21.0785198 C13.5822967,21.8783414 13.6655602,22.2764244 13.4818371,22.2727689 L11.7480589,22.2203321 L11.4567295,19.5888518 Z" id="Triangle" fill="#111111" transform="translate(12.516693, 20.930823) rotate(-130.000000) translate(-12.516693, -20.930823) "></path>
                    <path d="M21.1753791,8.89936415 C13.7202764,5.84215845 16.1767409,0.487757374 0.0816731722,7.65237981 C7.57729271,6.66396949 12.4629913,7.96775449 14.738769,11.5637348 C18.1524356,16.9577053 14.9009825,15.9164174 12.9035648,16.9577053 C11.4603434,18.267943 11.9511201,20.5257824 12.9035648,21.1903407 C14.9844107,22.6422292 19.7928806,21.3305992 21.1753791,19.9583148 C24.1983227,16.9577053 28.4114996,13.9570958 34.3342878,16.9577053 C38.2828132,18.9581117 41.8523551,22.0022728 45.0429135,26.0901888 C44.6667507,14.3401523 36.7109059,8.60987745 21.1753791,8.89936415 Z" id="Path-15" fill="#33BDF9"></path>
                </g>
                <g id="Bird-White" transform="translate(1040.190197, 167.120122) rotate(71.000000) translate(-1040.190197, -167.120122) translate(1023.190197, 151.620122)">
                    <path d="M14,14.8395313 C19.7439161,7.72898095 23.9946145,4.1737058 26.7520952,4.1737058 C26.7351409,4.48293694 26.6993949,4.58675098 26.6448571,4.48514792 C28.0534877,3.60276879 28.9092152,3.5544594 29.2120394,4.34021974 C30.2967487,3.88854163 31.1577915,3 31.9544087,3 C33.440125,3 29.1594173,6.94651042 19.1122854,14.8395313 L14,14.8395313 Z" id="Path-16" fill="url(#linearGradient-102)" transform="translate(23.120752, 8.919766) rotate(16.000000) translate(-23.120752, -8.919766) "></path>
                    <path d="M5.35062422,19.6770778 C5.09748141,13.346029 7.76027847,11.1409612 13.3390154,13.0618743 C18.2091317,14.7387899 21.1883731,13.7329815 29.6378552,24.154654 C29.8588068,24.4271778 27.7830217,22.3322535 26.9413451,22.2880732 C27.963685,22.7988726 28.5774045,24.4567565 29.0461511,25.4749135 C29.1921639,25.7920657 27.3444592,23.4678428 26.5196095,23.0458763 C27.2138954,23.465761 29.131054,25.9907036 29.2210107,26.8000582 C21.6028491,19.6002246 16.3660124,16.6859244 13.5105006,18.0571577 C10.6549888,19.428391 7.93503001,19.9683644 5.35062422,19.6770778 Z" id="Path-2" fill="#F5F3F3" transform="translate(17.494178, 19.595600) rotate(-20.000000) translate(-17.494178, -19.595600) "></path>
                    <path d="M0.903109972,22.6390703 C1.85816748,22.8355461 2.52391143,23.3941716 2.90034183,24.3149468 C3.27677223,25.235722 3.35902516,25.6971734 3.14710063,25.699301 L1.14781239,25.6984527 L0.903109972,22.6390703 Z" id="Triangle" fill="#CCCCCC" transform="translate(2.082356, 24.169186) rotate(-130.000000) translate(-2.082356, -24.169186) "></path>
                    <path d="M12.4027767,10.5072789 C5.02017599,13.0002749 4.84663193,18.5429331 2.44117713,19.7353752 C0.703131094,21.2358079 1.29416483,23.821397 2.44117713,24.5824232 C4.94710299,26.2450689 11.2947974,23.0571986 12.5159315,21.4199116 C18.4780714,13.4259211 16.6396715,17.8330941 20.7917457,12.4010024 C15.5028257,10.0081034 18.1757055,11.1333978 12.4027767,10.5072789 Z" id="Path-15" fill="#FFFFFF"></path>
                    <g id="Path-2" transform="translate(17.403515, 12.070146) rotate(-23.000000) translate(-17.403515, -12.070146) ">
                        <use fill="black" fill-opacity="1" filter="url(#filter-104)" xlink:href="#path-103"></use>
                        <use fill="#FFFFFF" fill-rule="evenodd" xlink:href="#path-103"></use>
                    </g>
                </g>
                <g id="Bird-White-Copy" transform="translate(1081.390549, 175.329497) rotate(71.000000) translate(-1081.390549, -175.329497) translate(1064.390549, 158.329497)">
                    <g id="Path-2" transform="translate(7.732931, 16.095558) rotate(-87.000000) translate(-7.732931, -16.095558) ">
                        <use fill="black" fill-opacity="1" filter="url(#filter-106)" xlink:href="#path-105"></use>
                        <use fill="#F9F9F9" fill-rule="evenodd" xlink:href="#path-105"></use>
                    </g>
                    <path d="M14,21.8395313 C19.7439161,14.7289809 23.9946145,11.1737058 26.7520952,11.1737058 C26.7351409,11.4829369 26.6993949,11.586751 26.6448571,11.4851479 C28.0534877,10.6027688 28.9092152,10.5544594 29.2120394,11.3402197 C30.2967487,10.8885416 31.1577915,10 31.9544087,10 C33.440125,10 29.1594173,13.9465104 19.1122854,21.8395313 L14,21.8395313 Z" id="Path-16" fill="url(#linearGradient-102)" transform="translate(23.120752, 15.919766) rotate(16.000000) translate(-23.120752, -15.919766) "></path>
                    <path d="M0.903109972,29.6390703 C1.85816748,29.8355461 2.52391143,30.3941716 2.90034183,31.3149468 C3.27677223,32.235722 3.35902516,32.6971734 3.14710063,32.699301 L1.14781239,32.6984527 L0.903109972,29.6390703 Z" id="Triangle" fill="#CCCCCC" transform="translate(2.082356, 31.169186) rotate(-130.000000) translate(-2.082356, -31.169186) "></path>
                    <path d="M12.4027767,17.5072789 C5.02017599,20.0002749 4.84663193,25.5429331 2.44117713,26.7353752 C0.703131094,28.2358079 1.29416483,30.821397 2.44117713,31.5824232 C4.94710299,33.2450689 11.2947974,30.0571986 12.5159315,28.4199116 C18.4780714,20.4259211 17.2413702,22.23013 20.9457924,20.4488752 C15.6568725,18.0559761 18.1757055,18.1333978 12.4027767,17.5072789 Z" id="Path-15" fill="#FFFFFF"></path>
                    <g id="Path-2" transform="translate(8.532779, 14.410747) rotate(-93.000000) translate(-8.532779, -14.410747) ">
                        <use fill="black" fill-opacity="1" filter="url(#filter-108)" xlink:href="#path-107"></use>
                        <use fill="#FFFFFF" fill-rule="evenodd" xlink:href="#path-107"></use>
                    </g>
                </g>
            </g>
        </g>
    </g>
</svg>